<svg width="110" height="42" viewBox="0 0 110 42" fill="none" xmlns="http://www.w3.org/2000/svg">
<path d="M83.5934 9.2691H81.3329C81.07 9.2691 80.8192 9.15586 80.6443 8.95906L79.728 7.92449C79.5916 7.77056 79.3947 7.68151 79.189 7.68151C78.9833 7.68151 78.7864 7.76946 78.65 7.92449L77.8635 8.81283C77.6061 9.10308 77.2365 9.2702 76.8482 9.2702H64.4776C64.1256 10.274 63.8957 11.3338 63.8044 12.4344H75.4831C75.6888 12.4344 75.8846 12.3508 76.0265 12.2024L77.1144 11.0689C77.2497 10.9271 77.4378 10.8468 77.6336 10.8468H77.6787C77.8844 10.8468 78.0813 10.9347 78.2177 11.0898L79.134 12.1243C79.3089 12.3211 79.5586 12.4344 79.8226 12.4344H89.3552C89.2639 11.3338 89.034 10.274 88.682 9.2702H83.5934V9.2691Z" fill="white"/>
<path d="M70.873 19.0849C71.0787 19.0849 71.2745 19.0013 71.4164 18.8529L72.5043 17.7194C72.6396 17.5776 72.8277 17.4973 73.0235 17.4973H73.0686C73.2743 17.4973 73.4712 17.5852 73.6076 17.7403L74.5239 18.7748C74.6988 18.9716 74.9485 19.0849 75.2125 19.0849H88.1309C88.6149 18.0855 88.9691 17.0124 89.1803 15.8899H76.7811C76.5182 15.8899 76.2674 15.7767 76.0925 15.5799L75.1762 14.5453C75.0398 14.3914 74.8429 14.3023 74.6372 14.3023C74.4315 14.3023 74.2346 14.3903 74.0982 14.5453L73.3117 15.4336C73.0543 15.7239 72.6847 15.891 72.2964 15.891H63.9815C64.1927 17.0146 64.5469 18.0866 65.0309 19.086H70.873V19.0849Z" fill="white"/>
<path d="M80.0371 5.81247C80.2428 5.81247 80.4386 5.72891 80.5805 5.58048L81.6684 4.44696C81.8037 4.30514 81.9918 4.22488 82.1876 4.22488H82.2327C82.4384 4.22488 82.6353 4.31283 82.7717 4.46785L83.688 5.50242C83.8629 5.69922 84.1126 5.81247 84.3766 5.81247H86.8329C84.4932 2.70435 80.7719 0.693481 76.5809 0.693481C72.3899 0.693481 68.6686 2.70435 66.3289 5.81247H80.0382H80.0371Z" fill="white"/>
<path d="M75.1025 22.2524H71.7431C71.4802 22.2524 71.2294 22.1391 71.0545 21.9423L70.1382 20.9078C70.0018 20.7538 69.8049 20.6648 69.5992 20.6648C69.3935 20.6648 69.1966 20.7527 69.0602 20.9078L68.2737 21.7961C68.0163 22.0863 67.6467 22.2535 67.2584 22.2535H67.2056C69.5464 24.7602 72.8783 26.3291 76.5798 26.3291C80.2813 26.3291 83.6132 24.7602 85.954 22.2535H75.1025V22.2524Z" fill="white"/>
<path d="M19.8913 25.5001L17.2821 19.1662H5.6254L3.0162 25.5001H0L11.4367 1.52136L22.9075 25.5001H19.8913ZM6.6077 16.7618H16.2657L11.4213 6.54579L6.6088 16.7618H6.6077Z" fill="white"/>
<path d="M27.0732 25.5001V1.52136H33.7491C38.9675 1.52136 41.712 3.92583 41.712 8.43023C41.712 12.9346 38.7981 15.272 33.715 15.272H29.8859V25.5001H27.0732ZM29.8859 12.7653H33.0715C37.1041 12.7653 38.8663 11.4449 38.8663 8.43023C38.8663 5.41557 37.07 4.02698 33.0715 4.02698H29.8859V12.7653Z" fill="white"/>
<path d="M51.9277 4.09514H43.6601V1.52136H63.0091V4.09514H54.7404V25.5001H51.9277V4.09514Z" fill="white"/>
<path d="M93.3152 21.1309L95.7374 19.4884L95.9244 19.8776C97.4149 22.5866 99.0418 23.6706 101.516 23.6706C104.26 23.6706 106.192 21.7741 106.192 19.4708C106.192 17.3027 105.107 15.847 100.77 14.0517C95.7891 11.9858 94.094 9.8518 94.094 6.80416C94.094 3.48495 96.7032 0.877088 101.21 0.877088C104.531 0.877088 106.801 2.29976 108.089 4.60308L106.124 5.95759L105.547 5.82236C104.531 4.23037 103.277 3.31564 101.142 3.31564C98.5325 3.31564 97.0079 4.7724 97.0079 6.73599C97.0079 8.56436 97.9902 9.61432 102.226 11.5449C107.749 14.0517 109.106 16.1175 109.106 19.4367C109.106 23.0605 105.988 26.1422 101.549 26.1422C97.8208 26.1422 95.2457 24.7195 93.3141 21.1298L93.3152 21.1309Z" fill="white"/>
<path d="M54.4313 41.1745L57.8633 33.4745H59.6233L63.0663 41.1745H61.1963L58.3803 34.3765H59.0843L56.2573 41.1745H54.4313ZM56.1473 39.5245L56.6203 38.1715H60.5803L61.0643 39.5245H56.1473Z" fill="white"/>
<path d="M67.0552 41.1745V33.4745H68.8372V41.1745H67.0552Z" fill="white"/>
<path d="M73.8546 41.1745V33.4745H77.1876C77.8769 33.4745 78.4709 33.5882 78.9696 33.8155C79.4682 34.0355 79.8532 34.3545 80.1245 34.7725C80.3959 35.1905 80.5316 35.6892 80.5316 36.2685C80.5316 36.8405 80.3959 37.3355 80.1245 37.7535C79.8532 38.1715 79.4682 38.4942 78.9696 38.7215C78.4709 38.9415 77.8769 39.0515 77.1876 39.0515H74.8446L75.6366 38.2485V41.1745H73.8546ZM75.6366 38.4465L74.8446 37.5995H77.0886C77.6386 37.5995 78.0492 37.4822 78.3205 37.2475C78.5919 37.0129 78.7276 36.6865 78.7276 36.2685C78.7276 35.8432 78.5919 35.5132 78.3205 35.2785C78.0492 35.0439 77.6386 34.9265 77.0886 34.9265H74.8446L75.6366 34.0795V38.4465Z" fill="white"/>
<path d="M84.7172 38.7655V37.3905H87.8302V38.7655H84.7172Z" fill="white"/>
<path d="M93.132 41.1745L96.234 34.1565L96.696 34.9265H92.549L93.341 34.0905V36.1805H91.757V33.4745H97.928V34.6295L95.068 41.1745H93.132Z" fill="white"/>
<path d="M105.139 41.3065C104.435 41.3065 103.823 41.1599 103.302 40.8665C102.789 40.5732 102.393 40.1442 102.114 39.5795C101.836 39.0149 101.696 38.3182 101.696 37.4895C101.696 36.6022 101.861 35.8505 102.191 35.2345C102.529 34.6185 102.991 34.1492 103.577 33.8265C104.171 33.5039 104.853 33.3425 105.623 33.3425C106.034 33.3425 106.426 33.3865 106.8 33.4745C107.174 33.5625 107.497 33.6945 107.768 33.8705L107.108 35.1795C106.896 35.0329 106.668 34.9339 106.426 34.8825C106.184 34.8239 105.931 34.7945 105.667 34.7945C105 34.7945 104.472 34.9962 104.083 35.3995C103.695 35.8029 103.5 36.4005 103.5 37.1925C103.5 37.3245 103.5 37.4712 103.5 37.6325C103.508 37.7939 103.53 37.9552 103.566 38.1165L103.071 37.6545C103.211 37.3685 103.39 37.1302 103.61 36.9395C103.83 36.7415 104.091 36.5949 104.391 36.4995C104.699 36.3969 105.037 36.3455 105.403 36.3455C105.902 36.3455 106.349 36.4445 106.745 36.6425C107.141 36.8405 107.457 37.1192 107.691 37.4785C107.933 37.8379 108.054 38.2595 108.054 38.7435C108.054 39.2642 107.922 39.7189 107.658 40.1075C107.402 40.4889 107.053 40.7859 106.613 40.9985C106.181 41.2039 105.689 41.3065 105.139 41.3065ZM105.04 39.9755C105.29 39.9755 105.51 39.9315 105.7 39.8435C105.898 39.7482 106.052 39.6125 106.162 39.4365C106.272 39.2605 106.327 39.0589 106.327 38.8315C106.327 38.4795 106.206 38.2009 105.964 37.9955C105.73 37.7829 105.414 37.6765 105.018 37.6765C104.754 37.6765 104.523 37.7279 104.325 37.8305C104.127 37.9259 103.97 38.0615 103.852 38.2375C103.742 38.4062 103.687 38.6042 103.687 38.8315C103.687 39.0515 103.742 39.2495 103.852 39.4255C103.962 39.5942 104.116 39.7299 104.314 39.8325C104.512 39.9279 104.754 39.9755 105.04 39.9755Z" fill="white"/>
</svg>
