<svg width="342" height="84" viewBox="0 0 342 84" fill="none" xmlns="http://www.w3.org/2000/svg">
<path d="M261.36 28.2941H254.332C253.514 28.2941 252.735 27.9418 252.191 27.3296L249.342 24.1109C248.918 23.632 248.306 23.355 247.666 23.355C247.027 23.355 246.414 23.6286 245.99 24.1109L243.545 26.8746C242.745 27.7777 241.596 28.2976 240.388 28.2976H201.927C200.833 31.4205 200.118 34.7178 199.834 38.1417H236.144C236.784 38.1417 237.392 37.8817 237.834 37.42L241.216 33.8935C241.637 33.4522 242.221 33.2025 242.83 33.2025H242.97C243.61 33.2025 244.222 33.4762 244.646 33.9584L247.495 37.1771C248.039 37.7894 248.815 38.1417 249.636 38.1417H279.274C278.99 34.7178 278.275 31.4205 277.181 28.2976H261.36V28.2941Z" fill="white"/>
<path d="M221.811 58.8321C222.45 58.8321 223.059 58.5722 223.5 58.1104L226.883 54.5839C227.303 54.1427 227.888 53.893 228.497 53.893H228.637C229.277 53.893 229.889 54.1666 230.313 54.6489L233.162 57.8675C233.706 58.4798 234.482 58.8321 235.303 58.8321H275.467C276.972 55.7229 278.073 52.3845 278.73 48.8922H240.18C239.362 48.8922 238.583 48.5399 238.039 47.9277L235.19 44.709C234.766 44.2301 234.154 43.9531 233.514 43.9531C232.875 43.9531 232.262 44.2267 231.838 44.709L229.393 47.4727C228.593 48.3757 227.444 48.8956 226.236 48.8956H200.385C201.041 52.3914 202.143 55.7263 203.647 58.8355H221.811V58.8321Z" fill="white"/>
<path d="M250.303 17.5402C250.943 17.5402 251.551 17.2802 251.992 16.8184L255.375 13.2919C255.795 12.8507 256.38 12.601 256.989 12.601H257.129C257.769 12.601 258.381 12.8746 258.805 13.3569L261.654 16.5756C262.198 17.1879 262.974 17.5402 263.795 17.5402H271.432C264.157 7.87049 252.588 1.61444 239.557 1.61444C226.527 1.61444 214.957 7.87049 207.683 17.5402H250.306H250.303Z" fill="white"/>
<path d="M234.961 68.6865H224.516C223.699 68.6865 222.919 68.3342 222.375 67.722L219.526 64.5033C219.102 64.0244 218.49 63.7474 217.851 63.7474C217.211 63.7474 216.599 64.021 216.175 64.5033L213.73 67.267C212.929 68.1701 211.78 68.69 210.573 68.69H210.409C217.686 76.4886 228.046 81.3697 239.554 81.3697C251.062 81.3697 261.421 76.4886 268.699 68.69H234.961V68.6865Z" fill="white"/>
<path d="M63.3042 78.7906L55.1919 59.0853H18.9502L10.838 78.7906H1.46033L37.0181 4.19006L72.6818 78.7906H63.3042ZM22.0043 51.6047H52.0319L36.9702 19.8216L22.0077 51.6047H22.0043Z" fill="white"/>
<path d="M85.6334 78.7906V4.19006H106.389C122.614 4.19006 131.147 11.6706 131.147 25.6843C131.147 39.698 122.087 46.9699 106.283 46.9699H94.3783V78.7906H85.6334ZM94.3783 39.1712H104.283C116.82 39.1712 122.299 35.0633 122.299 25.6843C122.299 16.3054 116.714 11.9853 104.283 11.9853H94.3783V39.1712Z" fill="white"/>
<path d="M162.908 12.1974H137.204V4.19006H197.361V12.1974H171.653V78.7906H162.908V12.1974Z" fill="white"/>
<path d="M291.586 65.1976L299.117 60.0875L299.698 61.2983C304.332 69.7263 309.39 73.0989 317.082 73.0989C325.615 73.0989 331.62 67.1986 331.62 60.0327C331.62 53.2875 328.248 48.7588 314.763 43.1732C299.277 36.7461 294.007 30.107 294.007 20.6254C294.007 10.299 302.119 2.18567 316.131 2.18567C326.456 2.18567 333.515 6.61176 337.52 13.7777L331.408 17.9917L329.616 17.571C326.456 12.6181 322.557 9.77228 315.919 9.77228C307.807 9.77228 303.067 14.3044 303.067 20.4134C303.067 26.1016 306.121 29.3682 319.291 35.3745C336.463 43.1732 340.68 49.6003 340.68 59.9267C340.68 71.2006 330.988 80.7882 317.184 80.7882C305.594 80.7882 297.588 76.3621 291.582 65.1942L291.586 65.1976Z" fill="white"/>
</svg>
