<svg width="60" height="60" viewBox="0 0 60 60" fill="none" xmlns="http://www.w3.org/2000/svg">
<path fill-rule="evenodd" clip-rule="evenodd" d="M4.19999 21.3052C4.69704 21.3052 5.09999 21.7081 5.09999 22.2052V37.2103C5.09999 37.7073 4.69704 38.1103 4.19999 38.1103C3.70293 38.1103 3.29999 37.7073 3.29999 37.2103V22.2052C3.29999 21.7081 3.70293 21.3052 4.19999 21.3052Z" fill="#34576F"/>
<path d="M4.20001 37.2102L12.8958 38.5869L4.20001 37.2102Z" fill="#34576F"/>
<path fill-rule="evenodd" clip-rule="evenodd" d="M3.31107 37.0695C3.3888 36.5785 3.84979 36.2435 4.34073 36.3213L13.0365 37.698C13.5275 37.7757 13.8624 38.2367 13.7847 38.7277C13.707 39.2186 13.246 39.5536 12.755 39.4759L4.05926 38.0991C3.56832 38.0214 3.23334 37.5604 3.31107 37.0695Z" fill="#34576F"/>
<path d="M4.20001 37.2102L12.8958 50.8385L4.20001 37.2102Z" fill="#34576F"/>
<path fill-rule="evenodd" clip-rule="evenodd" d="M3.71587 36.4515C4.1349 36.1841 4.69132 36.307 4.95869 36.7261L13.6545 50.3544C13.9218 50.7734 13.7989 51.3299 13.3799 51.5972C12.9608 51.8646 12.4044 51.7416 12.137 51.3226L3.44127 37.6943C3.1739 37.2753 3.29685 36.7188 3.71587 36.4515Z" fill="#34576F"/>
<path d="M4.20001 22.2051L12.8958 8.57678L4.20001 22.2051Z" fill="#34576F"/>
<path fill-rule="evenodd" clip-rule="evenodd" d="M13.3799 7.81804C13.7989 8.0854 13.9218 8.64183 13.6545 9.06085L4.95869 22.6892C4.69132 23.1082 4.1349 23.2312 3.71587 22.9638C3.29685 22.6964 3.1739 22.14 3.44127 21.721L12.137 8.09264C12.4044 7.67362 12.9608 7.55067 13.3799 7.81804Z" fill="#34576F"/>
<path d="M4.20001 22.2051L12.8958 20.8284L4.20001 22.2051Z" fill="#34576F"/>
<path fill-rule="evenodd" clip-rule="evenodd" d="M13.7847 20.6876C13.8624 21.1786 13.5275 21.6396 13.0365 21.7173L4.34073 23.094C3.84979 23.1717 3.3888 22.8368 3.31107 22.3458C3.23334 21.8549 3.56832 21.3939 4.05926 21.3162L12.755 19.9394C13.246 19.8617 13.707 20.1967 13.7847 20.6876Z" fill="#34576F"/>
<path d="M12.8958 38.5869L21.5915 52.2153L12.8958 38.5869Z" fill="#34576F"/>
<path fill-rule="evenodd" clip-rule="evenodd" d="M12.4117 37.8283C12.8307 37.5609 13.3871 37.6839 13.6545 38.1029L22.3503 51.7312C22.6176 52.1503 22.4947 52.7067 22.0757 52.9741C21.6566 53.2414 21.1002 53.1185 20.8328 52.6994L12.1371 39.0711C11.8697 38.6521 11.9926 38.0957 12.4117 37.8283Z" fill="#34576F"/>
<path d="M12.8958 38.587L21.5915 24.9586L12.8958 38.587Z" fill="#34576F"/>
<path fill-rule="evenodd" clip-rule="evenodd" d="M22.0757 24.1999C22.4947 24.4672 22.6176 25.0237 22.3503 25.4427L13.6545 39.071C13.3871 39.4901 12.8307 39.613 12.4117 39.3456C11.9926 39.0783 11.8697 38.5218 12.1371 38.1028L20.8328 24.4745C21.1002 24.0555 21.6566 23.9325 22.0757 24.1999Z" fill="#34576F"/>
<path d="M12.8958 50.8386L21.5915 52.2154L12.8958 50.8386Z" fill="#34576F"/>
<path fill-rule="evenodd" clip-rule="evenodd" d="M12.0069 50.6979C12.0846 50.2069 12.5456 49.872 13.0365 49.9497L21.7323 51.3264C22.2233 51.4041 22.5582 51.8651 22.4805 52.3561C22.4028 52.847 21.9418 53.182 21.4508 53.1043L12.7551 51.7275C12.2641 51.6498 11.9291 51.1888 12.0069 50.6979Z" fill="#34576F"/>
<path d="M12.8958 50.8385L21.5915 49.4618L12.8958 50.8385Z" fill="#34576F"/>
<path fill-rule="evenodd" clip-rule="evenodd" d="M22.4805 49.321C22.5582 49.812 22.2233 50.273 21.7323 50.3507L13.0365 51.7274C12.5456 51.8052 12.0846 51.4702 12.0069 50.9793C11.9291 50.4883 12.2641 50.0273 12.7551 49.9496L21.4508 48.5728C21.9418 48.4951 22.4028 48.8301 22.4805 49.321Z" fill="#34576F"/>
<path d="M12.8958 8.57678L21.5915 9.95352L12.8958 8.57678Z" fill="#34576F"/>
<path fill-rule="evenodd" clip-rule="evenodd" d="M12.0069 8.43603C12.0846 7.94509 12.5456 7.61011 13.0365 7.68784L21.7323 9.06458C22.2233 9.14231 22.5582 9.60331 22.4805 10.0942C22.4028 10.5852 21.9418 10.9202 21.4508 10.8424L12.7551 9.46569C12.2641 9.38797 11.9291 8.92697 12.0069 8.43603Z" fill="#34576F"/>
<path d="M12.8958 8.57682L21.5915 7.20007L12.8958 8.57682Z" fill="#34576F"/>
<path fill-rule="evenodd" clip-rule="evenodd" d="M22.4805 7.05932C22.5582 7.55026 22.2233 8.01126 21.7323 8.08899L13.0365 9.46573C12.5456 9.54345 12.0846 9.20848 12.0069 8.71754C11.9291 8.2266 12.2641 7.7656 12.7551 7.68787L21.4508 6.31113C21.9418 6.2334 22.4028 6.56838 22.4805 7.05932Z" fill="#34576F"/>
<path d="M12.8958 20.8284L21.5915 34.4567L12.8958 20.8284Z" fill="#34576F"/>
<path fill-rule="evenodd" clip-rule="evenodd" d="M12.4117 20.0697C12.8307 19.8024 13.3871 19.9253 13.6545 20.3444L22.3503 33.9727C22.6176 34.3917 22.4947 34.9481 22.0757 35.2155C21.6566 35.4829 21.1002 35.3599 20.8328 34.9409L12.1371 21.3126C11.8697 20.8935 11.9926 20.3371 12.4117 20.0697Z" fill="#34576F"/>
<path d="M12.8958 20.8284L21.5915 7.20007L12.8958 20.8284Z" fill="#34576F"/>
<path fill-rule="evenodd" clip-rule="evenodd" d="M22.0757 6.44133C22.4947 6.70869 22.6176 7.26512 22.3503 7.68415L13.6545 21.3125C13.3871 21.7315 12.8307 21.8545 12.4117 21.5871C11.9926 21.3197 11.8697 20.7633 12.1371 20.3443L20.8328 6.71593C21.1002 6.29691 21.6566 6.17396 22.0757 6.44133Z" fill="#34576F"/>
<path fill-rule="evenodd" clip-rule="evenodd" d="M20.6915 52.2153C20.6915 51.7183 21.0945 51.3153 21.5915 51.3153H38.9831C39.4801 51.3153 39.8831 51.7183 39.8831 52.2153C39.8831 52.7124 39.4801 53.1153 38.9831 53.1153H21.5915C21.0945 53.1153 20.6915 52.7124 20.6915 52.2153Z" fill="#34576F"/>
<path fill-rule="evenodd" clip-rule="evenodd" d="M21.5915 9.05359C22.0886 9.05359 22.4915 9.45653 22.4915 9.95359V24.9587C22.4915 25.4557 22.0886 25.8587 21.5915 25.8587C21.0945 25.8587 20.6915 25.4557 20.6915 24.9587V9.95359C20.6915 9.45653 21.0945 9.05359 21.5915 9.05359Z" fill="#34576F"/>
<path fill-rule="evenodd" clip-rule="evenodd" d="M20.6915 24.9586C20.6915 24.4615 21.0945 24.0586 21.5915 24.0586H38.9831C39.4801 24.0586 39.8831 24.4615 39.8831 24.9586C39.8831 25.4557 39.4801 25.8586 38.9831 25.8586H21.5915C21.0945 25.8586 20.6915 25.4557 20.6915 24.9586Z" fill="#34576F"/>
<path fill-rule="evenodd" clip-rule="evenodd" d="M21.5915 33.5568C22.0886 33.5568 22.4915 33.9597 22.4915 34.4568V49.4618C22.4915 49.9589 22.0886 50.3618 21.5915 50.3618C21.0945 50.3618 20.6915 49.9589 20.6915 49.4618V34.4568C20.6915 33.9597 21.0945 33.5568 21.5915 33.5568Z" fill="#34576F"/>
<path fill-rule="evenodd" clip-rule="evenodd" d="M20.6915 49.4618C20.6915 48.9647 21.0945 48.5618 21.5915 48.5618H38.9831C39.4801 48.5618 39.8831 48.9647 39.8831 49.4618C39.8831 49.9588 39.4801 50.3618 38.9831 50.3618H21.5915C21.0945 50.3618 20.6915 49.9588 20.6915 49.4618Z" fill="#34576F"/>
<path fill-rule="evenodd" clip-rule="evenodd" d="M20.6915 9.95359C20.6915 9.45653 21.0945 9.05359 21.5915 9.05359H38.9831C39.4801 9.05359 39.8831 9.45653 39.8831 9.95359C39.8831 10.4506 39.4801 10.8536 38.9831 10.8536H21.5915C21.0945 10.8536 20.6915 10.4506 20.6915 9.95359Z" fill="#34576F"/>
<path fill-rule="evenodd" clip-rule="evenodd" d="M20.6915 34.4568C20.6915 33.9597 21.0945 33.5568 21.5915 33.5568H38.9831C39.4801 33.5568 39.8831 33.9597 39.8831 34.4568C39.8831 34.9538 39.4801 35.3568 38.9831 35.3568H21.5915C21.0945 35.3568 20.6915 34.9538 20.6915 34.4568Z" fill="#34576F"/>
<path fill-rule="evenodd" clip-rule="evenodd" d="M20.6915 7.20005C20.6915 6.70299 21.0945 6.30005 21.5915 6.30005H38.9831C39.4801 6.30005 39.8831 6.70299 39.8831 7.20005C39.8831 7.69711 39.4801 8.10005 38.9831 8.10005H21.5915C21.0945 8.10005 20.6915 7.69711 20.6915 7.20005Z" fill="#34576F"/>
<path d="M38.9831 52.2153L47.6789 38.5869L38.9831 52.2153Z" fill="#34576F"/>
<path fill-rule="evenodd" clip-rule="evenodd" d="M48.163 37.8283C48.582 38.0957 48.705 38.6521 48.4376 39.0711L39.7418 52.6994C39.4745 53.1185 38.918 53.2414 38.499 52.9741C38.08 52.7067 37.957 52.1503 38.2244 51.7312L46.9202 38.1029C47.1876 37.6839 47.744 37.5609 48.163 37.8283Z" fill="#34576F"/>
<path d="M38.9831 52.2154L47.6789 50.8386L38.9831 52.2154Z" fill="#34576F"/>
<path fill-rule="evenodd" clip-rule="evenodd" d="M48.5678 50.6979C48.6456 51.1888 48.3106 51.6498 47.8197 51.7275L39.1239 53.1043C38.6329 53.182 38.1719 52.847 38.0942 52.3561C38.0165 51.8651 38.3515 51.4041 38.8424 51.3264L47.5382 49.9497C48.0291 49.872 48.4901 50.2069 48.5678 50.6979Z" fill="#34576F"/>
<path fill-rule="evenodd" clip-rule="evenodd" d="M38.9831 9.05359C39.4802 9.05359 39.8831 9.45653 39.8831 9.95359V24.9587C39.8831 25.4557 39.4802 25.8587 38.9831 25.8587C38.4861 25.8587 38.0831 25.4557 38.0831 24.9587V9.95359C38.0831 9.45653 38.4861 9.05359 38.9831 9.05359Z" fill="#34576F"/>
<path d="M38.9831 24.9586L47.6789 38.587L38.9831 24.9586Z" fill="#34576F"/>
<path fill-rule="evenodd" clip-rule="evenodd" d="M38.499 24.1999C38.918 23.9325 39.4745 24.0555 39.7418 24.4745L48.4376 38.1028C48.705 38.5218 48.582 39.0783 48.163 39.3456C47.744 39.613 47.1876 39.4901 46.9202 39.071L38.2244 25.4427C37.957 25.0237 38.08 24.4672 38.499 24.1999Z" fill="#34576F"/>
<path fill-rule="evenodd" clip-rule="evenodd" d="M38.9831 33.5568C39.4802 33.5568 39.8831 33.9597 39.8831 34.4568V49.4618C39.8831 49.9589 39.4802 50.3618 38.9831 50.3618C38.4861 50.3618 38.0831 49.9589 38.0831 49.4618V34.4568C38.0831 33.9597 38.4861 33.5568 38.9831 33.5568Z" fill="#34576F"/>
<path d="M38.9831 49.4618L47.6789 50.8385L38.9831 49.4618Z" fill="#34576F"/>
<path fill-rule="evenodd" clip-rule="evenodd" d="M38.0942 49.321C38.1719 48.8301 38.6329 48.4951 39.1239 48.5728L47.8197 49.9496C48.3106 50.0273 48.6456 50.4883 48.5678 50.9793C48.4901 51.4702 48.0291 51.8052 47.5382 51.7274L38.8424 50.3507C38.3515 50.273 38.0165 49.812 38.0942 49.321Z" fill="#34576F"/>
<path d="M38.9831 9.95352L47.6789 8.57678L38.9831 9.95352Z" fill="#34576F"/>
<path fill-rule="evenodd" clip-rule="evenodd" d="M48.5678 8.43603C48.6456 8.92697 48.3106 9.38797 47.8197 9.46569L39.1239 10.8424C38.6329 10.9202 38.1719 10.5852 38.0942 10.0942C38.0165 9.60331 38.3515 9.14231 38.8424 9.06458L47.5382 7.68784C48.0291 7.61011 48.4901 7.94509 48.5678 8.43603Z" fill="#34576F"/>
<path d="M38.9831 34.4567L47.6789 20.8284L38.9831 34.4567Z" fill="#34576F"/>
<path fill-rule="evenodd" clip-rule="evenodd" d="M48.163 20.0697C48.582 20.3371 48.705 20.8935 48.4376 21.3126L39.7418 34.9409C39.4745 35.3599 38.918 35.4829 38.499 35.2155C38.08 34.9481 37.957 34.3917 38.2244 33.9727L46.9202 20.3444C47.1876 19.9253 47.744 19.8024 48.163 20.0697Z" fill="#34576F"/>
<path d="M38.9831 7.20007L47.6789 8.57682L38.9831 7.20007Z" fill="#34576F"/>
<path fill-rule="evenodd" clip-rule="evenodd" d="M38.0942 7.05932C38.1719 6.56838 38.6329 6.2334 39.1239 6.31113L47.8197 7.68787C48.3106 7.7656 48.6456 8.2266 48.5678 8.71754C48.4901 9.20848 48.0291 9.54345 47.5382 9.46573L38.8424 8.08899C38.3515 8.01126 38.0165 7.55026 38.0942 7.05932Z" fill="#34576F"/>
<path d="M38.9831 7.20007L47.6789 20.8284L38.9831 7.20007Z" fill="#34576F"/>
<path fill-rule="evenodd" clip-rule="evenodd" d="M38.499 6.44133C38.918 6.17396 39.4745 6.29691 39.7418 6.71593L48.4376 20.3443C48.705 20.7633 48.582 21.3197 48.163 21.5871C47.744 21.8545 47.1876 21.7315 46.9202 21.3125L38.2244 7.68415C37.957 7.26512 38.08 6.70869 38.499 6.44133Z" fill="#34576F"/>
<path d="M47.6789 38.5869L56.3747 37.2102L47.6789 38.5869Z" fill="#34576F"/>
<path fill-rule="evenodd" clip-rule="evenodd" d="M57.2636 37.0695C57.3413 37.5604 57.0063 38.0214 56.5154 38.0991L47.8196 39.4759C47.3287 39.5536 46.8677 39.2186 46.79 38.7277C46.7122 38.2367 47.0472 37.7757 47.5381 37.698L56.2339 36.3213C56.7249 36.2435 57.1859 36.5785 57.2636 37.0695Z" fill="#34576F"/>
<path d="M47.6789 50.8385L56.3747 37.2102L47.6789 50.8385Z" fill="#34576F"/>
<path fill-rule="evenodd" clip-rule="evenodd" d="M56.8588 36.4515C57.2778 36.7188 57.4008 37.2753 57.1334 37.6943L48.4376 51.3226C48.1703 51.7416 47.6138 51.8646 47.1948 51.5972C46.7758 51.3299 46.6528 50.7734 46.9202 50.3544L55.616 36.7261C55.8834 36.307 56.4398 36.1841 56.8588 36.4515Z" fill="#34576F"/>
<path d="M47.6789 8.57678L56.3747 22.2051L47.6789 8.57678Z" fill="#34576F"/>
<path fill-rule="evenodd" clip-rule="evenodd" d="M47.1948 7.81804C47.6138 7.55067 48.1703 7.67362 48.4376 8.09264L57.1334 21.721C57.4008 22.14 57.2778 22.6964 56.8588 22.9638C56.4398 23.2312 55.8834 23.1082 55.616 22.6892L46.9202 9.06085C46.6528 8.64183 46.7758 8.0854 47.1948 7.81804Z" fill="#34576F"/>
<path d="M47.6789 20.8284L56.3747 22.2051L47.6789 20.8284Z" fill="#34576F"/>
<path fill-rule="evenodd" clip-rule="evenodd" d="M46.79 20.6876C46.8677 20.1967 47.3287 19.8617 47.8196 19.9394L56.5154 21.3162C57.0063 21.3939 57.3413 21.8549 57.2636 22.3458C57.1859 22.8368 56.7249 23.1717 56.2339 23.094L47.5381 21.7173C47.0472 21.6396 46.7122 21.1786 46.79 20.6876Z" fill="#34576F"/>
<path fill-rule="evenodd" clip-rule="evenodd" d="M56.3747 21.3052C56.8717 21.3052 57.2747 21.7081 57.2747 22.2052V37.2103C57.2747 37.7073 56.8717 38.1103 56.3747 38.1103C55.8776 38.1103 55.4747 37.7073 55.4747 37.2103V22.2052C55.4747 21.7081 55.8776 21.3052 56.3747 21.3052Z" fill="#34576F"/>
</svg>
