<svg width="60" height="60" viewBox="0 0 60 60" fill="none" xmlns="http://www.w3.org/2000/svg">
<path d="M4.20001 29.9926L17.2439 26.1849L4.20001 29.9926Z" fill="#34576F"/>
<path fill-rule="evenodd" clip-rule="evenodd" d="M18.1078 25.9327C18.2471 26.4099 17.9732 26.9096 17.496 27.0488L4.4522 30.8565C3.97506 30.9958 3.47535 30.7219 3.33607 30.2447C3.19678 29.7676 3.47067 29.2679 3.94781 29.1286L16.9917 25.321C17.4688 25.1817 17.9685 25.4556 18.1078 25.9327Z" fill="#34576F"/>
<path d="M4.20001 29.9926L17.2439 52.1851L4.20001 29.9926Z" fill="#34576F"/>
<path fill-rule="evenodd" clip-rule="evenodd" d="M3.74397 29.2166C4.17249 28.9648 4.72405 29.108 4.97591 29.5365L18.0198 51.7291C18.2716 52.1576 18.1284 52.7092 17.6999 52.961C17.2714 53.2129 16.7198 53.0697 16.468 52.6412L3.42411 30.4486C3.17224 30.0201 3.31545 29.4685 3.74397 29.2166Z" fill="#34576F"/>
<path d="M4.20001 29.9926L17.2439 7.80005L4.20001 29.9926Z" fill="#34576F"/>
<path fill-rule="evenodd" clip-rule="evenodd" d="M17.7 7.02414C18.1285 7.27601 18.2717 7.82757 18.0198 8.25609L4.97597 30.4487C4.72411 30.8772 4.17255 31.0204 3.74403 30.7685C3.31551 30.5167 3.1723 29.9651 3.42417 29.5366L16.468 7.344C16.7199 6.91548 17.2714 6.77228 17.7 7.02414Z" fill="#34576F"/>
<path d="M4.20001 29.9926L17.2439 33.8002L4.20001 29.9926Z" fill="#34576F"/>
<path fill-rule="evenodd" clip-rule="evenodd" d="M3.33607 29.7404C3.47535 29.2633 3.97506 28.9894 4.4522 29.1287L17.496 32.9363C17.9732 33.0756 18.2471 33.5753 18.1078 34.0525C17.9685 34.5296 17.4688 34.8035 16.9917 34.6642L3.94781 30.8566C3.47067 30.7173 3.19678 30.2176 3.33607 29.7404Z" fill="#34576F"/>
<path fill-rule="evenodd" clip-rule="evenodd" d="M17.2439 6.90002C17.7409 6.90002 18.1439 7.30297 18.1439 7.80002V26.185C18.1439 26.682 17.7409 27.085 17.2439 27.085C16.7468 27.085 16.3439 26.682 16.3439 26.185V7.80002C16.3439 7.30297 16.7468 6.90002 17.2439 6.90002Z" fill="#34576F"/>
<path d="M17.2439 26.1849L30.2877 48.3775L17.2439 26.1849Z" fill="#34576F"/>
<path fill-rule="evenodd" clip-rule="evenodd" d="M16.7878 25.409C17.2163 25.1572 17.7679 25.3004 18.0198 25.7289L31.0636 47.9215C31.3155 48.35 31.1723 48.9015 30.7438 49.1534C30.3152 49.4053 29.7637 49.2621 29.5118 48.8335L16.468 26.641C16.2161 26.2125 16.3593 25.6609 16.7878 25.409Z" fill="#34576F"/>
<path fill-rule="evenodd" clip-rule="evenodd" d="M16.3439 26.1849C16.3439 25.6879 16.7468 25.2849 17.2439 25.2849H43.3316C43.8286 25.2849 44.2316 25.6879 44.2316 26.1849C44.2316 26.682 43.8286 27.0849 43.3316 27.0849H17.2439C16.7468 27.0849 16.3439 26.682 16.3439 26.1849Z" fill="#34576F"/>
<path fill-rule="evenodd" clip-rule="evenodd" d="M17.2439 32.9003C17.7409 32.9003 18.1439 33.3032 18.1439 33.8003V52.1852C18.1439 52.6823 17.7409 53.0852 17.2439 53.0852C16.7468 53.0852 16.3439 52.6823 16.3439 52.1852V33.8003C16.3439 33.3032 16.7468 32.9003 17.2439 32.9003Z" fill="#34576F"/>
<path d="M17.2439 52.1852L30.2877 48.3776L17.2439 52.1852Z" fill="#34576F"/>
<path fill-rule="evenodd" clip-rule="evenodd" d="M31.1517 48.1253C31.2909 48.6025 31.017 49.1022 30.5399 49.2415L17.4961 53.0491C17.0189 53.1884 16.5192 52.9145 16.3799 52.4374C16.2406 51.9602 16.5145 51.4605 16.9917 51.3212L30.0355 47.5136C30.5127 47.3743 31.0124 47.6482 31.1517 48.1253Z" fill="#34576F"/>
<path fill-rule="evenodd" clip-rule="evenodd" d="M16.3439 52.1852C16.3439 51.6881 16.7468 51.2852 17.2439 51.2852H43.3316C43.8286 51.2852 44.2316 51.6881 44.2316 52.1852C44.2316 52.6822 43.8286 53.0852 43.3316 53.0852H17.2439C16.7468 53.0852 16.3439 52.6822 16.3439 52.1852Z" fill="#34576F"/>
<path d="M17.2439 7.80005L30.2877 11.6077L17.2439 7.80005Z" fill="#34576F"/>
<path fill-rule="evenodd" clip-rule="evenodd" d="M16.3799 7.54782C16.5192 7.07068 17.0189 6.79679 17.4961 6.93607L30.5399 10.7437C31.017 10.883 31.2909 11.3827 31.1517 11.8599C31.0124 12.337 30.5127 12.6109 30.0355 12.4716L16.9917 8.66396C16.5145 8.52467 16.2406 8.02496 16.3799 7.54782Z" fill="#34576F"/>
<path fill-rule="evenodd" clip-rule="evenodd" d="M16.3439 7.80002C16.3439 7.30297 16.7468 6.90002 17.2439 6.90002H43.3316C43.8286 6.90002 44.2316 7.30297 44.2316 7.80002C44.2316 8.29708 43.8286 8.70002 43.3316 8.70002H17.2439C16.7468 8.70002 16.3439 8.29708 16.3439 7.80002Z" fill="#34576F"/>
<path d="M17.2439 33.8002L30.2877 11.6077L17.2439 33.8002Z" fill="#34576F"/>
<path fill-rule="evenodd" clip-rule="evenodd" d="M30.7438 10.8318C31.1723 11.0836 31.3155 11.6352 31.0636 12.0637L18.0198 34.2563C17.7679 34.6848 17.2163 34.828 16.7878 34.5761C16.3593 34.3243 16.2161 33.7727 16.468 33.3442L29.5118 11.1516C29.7637 10.7231 30.3152 10.5799 30.7438 10.8318Z" fill="#34576F"/>
<path fill-rule="evenodd" clip-rule="evenodd" d="M16.3439 33.8003C16.3439 33.3032 16.7468 32.9003 17.2439 32.9003H43.3316C43.8286 32.9003 44.2316 33.3032 44.2316 33.8003C44.2316 34.2973 43.8286 34.7003 43.3316 34.7003H17.2439C16.7468 34.7003 16.3439 34.2973 16.3439 33.8003Z" fill="#34576F"/>
<path d="M30.2877 48.3775L43.3315 26.1849L30.2877 48.3775Z" fill="#34576F"/>
<path fill-rule="evenodd" clip-rule="evenodd" d="M43.7876 25.409C44.2161 25.6609 44.3593 26.2125 44.1075 26.641L31.0636 48.8335C30.8118 49.2621 30.2602 49.4053 29.8317 49.1534C29.4032 48.9015 29.2599 48.35 29.5118 47.9215L42.5557 25.7289C42.8075 25.3004 43.3591 25.1572 43.7876 25.409Z" fill="#34576F"/>
<path d="M30.2877 48.3776L43.3315 52.1852L30.2877 48.3776Z" fill="#34576F"/>
<path fill-rule="evenodd" clip-rule="evenodd" d="M29.4238 48.1253C29.5631 47.6482 30.0628 47.3743 30.5399 47.5136L43.5838 51.3212C44.0609 51.4605 44.3348 51.9602 44.1955 52.4374C44.0562 52.9145 43.5565 53.1884 43.0794 53.0491L30.0355 49.2415C29.5584 49.1022 29.2845 48.6025 29.4238 48.1253Z" fill="#34576F"/>
<path d="M30.2877 11.6077L43.3315 7.80005L30.2877 11.6077Z" fill="#34576F"/>
<path fill-rule="evenodd" clip-rule="evenodd" d="M44.1955 7.54782C44.3348 8.02496 44.0609 8.52467 43.5838 8.66396L30.5399 12.4716C30.0628 12.6109 29.5631 12.337 29.4238 11.8599C29.2845 11.3827 29.5584 10.883 30.0355 10.7437L43.0794 6.93607C43.5565 6.79679 44.0562 7.07068 44.1955 7.54782Z" fill="#34576F"/>
<path d="M30.2877 11.6077L43.3315 33.8002L30.2877 11.6077Z" fill="#34576F"/>
<path fill-rule="evenodd" clip-rule="evenodd" d="M29.8317 10.8318C30.2602 10.5799 30.8118 10.7231 31.0636 11.1516L44.1075 33.3442C44.3593 33.7727 44.2161 34.3243 43.7876 34.5761C43.3591 34.828 42.8075 34.6848 42.5557 34.2563L29.5118 12.0637C29.2599 11.6352 29.4032 11.0836 29.8317 10.8318Z" fill="#34576F"/>
<path fill-rule="evenodd" clip-rule="evenodd" d="M43.3315 6.90002C43.8286 6.90002 44.2315 7.30297 44.2315 7.80002V26.185C44.2315 26.682 43.8286 27.085 43.3315 27.085C42.8345 27.085 42.4315 26.682 42.4315 26.185V7.80002C42.4315 7.30297 42.8345 6.90002 43.3315 6.90002Z" fill="#34576F"/>
<path d="M43.3315 26.1849L56.3754 29.9926L43.3315 26.1849Z" fill="#34576F"/>
<path fill-rule="evenodd" clip-rule="evenodd" d="M42.4676 25.9327C42.6069 25.4556 43.1066 25.1817 43.5837 25.321L56.6276 29.1286C57.1047 29.2679 57.3786 29.7676 57.2393 30.2447C57.1 30.7219 56.6003 30.9958 56.1232 30.8565L43.0793 27.0488C42.6022 26.9096 42.3283 26.4099 42.4676 25.9327Z" fill="#34576F"/>
<path fill-rule="evenodd" clip-rule="evenodd" d="M43.3315 32.9003C43.8286 32.9003 44.2315 33.3032 44.2315 33.8003V52.1852C44.2315 52.6823 43.8286 53.0852 43.3315 53.0852C42.8345 53.0852 42.4315 52.6823 42.4315 52.1852V33.8003C42.4315 33.3032 42.8345 32.9003 43.3315 32.9003Z" fill="#34576F"/>
<path d="M43.3315 52.1851L56.3754 29.9926L43.3315 52.1851Z" fill="#34576F"/>
<path fill-rule="evenodd" clip-rule="evenodd" d="M56.8314 29.2166C57.26 29.4685 57.4032 30.0201 57.1513 30.4486L44.1074 52.6412C43.8556 53.0697 43.304 53.2129 42.8755 52.961C42.447 52.7092 42.3038 52.1576 42.5556 51.7291L55.5995 29.5365C55.8514 29.108 56.4029 28.9648 56.8314 29.2166Z" fill="#34576F"/>
<path d="M43.3315 7.80005L56.3754 29.9926L43.3315 7.80005Z" fill="#34576F"/>
<path fill-rule="evenodd" clip-rule="evenodd" d="M42.8755 7.02414C43.304 6.77228 43.8556 6.91548 44.1074 7.344L57.1513 29.5366C57.4032 29.9651 57.26 30.5167 56.8314 30.7685C56.4029 31.0204 55.8514 30.8772 55.5995 30.4487L42.5556 8.25609C42.3038 7.82757 42.447 7.27601 42.8755 7.02414Z" fill="#34576F"/>
<path d="M43.3315 33.8002L56.3754 29.9926L43.3315 33.8002Z" fill="#34576F"/>
<path fill-rule="evenodd" clip-rule="evenodd" d="M57.2393 29.7404C57.3786 30.2176 57.1047 30.7173 56.6276 30.8566L43.5837 34.6642C43.1066 34.8035 42.6069 34.5296 42.4676 34.0525C42.3283 33.5753 42.6022 33.0756 43.0793 32.9363L56.1232 29.1287C56.6003 28.9894 57.1 29.2633 57.2393 29.7404Z" fill="#34576F"/>
</svg>
