<svg width="60" height="60" viewBox="0 0 60 60" fill="none" xmlns="http://www.w3.org/2000/svg">
<path d="M13.9127 39.5804L8.42834 42.7553L13.9127 39.5804Z" fill="#34576F"/>
<path fill-rule="evenodd" clip-rule="evenodd" d="M14.6916 39.1295C14.9406 39.5597 14.7937 40.1103 14.3636 40.3593L8.87925 43.5342C8.44907 43.7832 7.89847 43.6363 7.64944 43.2062C7.40042 42.776 7.54727 42.2254 7.97745 41.9764L13.4618 38.8015C13.892 38.5525 14.4426 38.6994 14.6916 39.1295Z" fill="#34576F"/>
<path d="M13.9127 39.5804L41.2934 39.6862L13.9127 39.5804Z" fill="#34576F"/>
<path fill-rule="evenodd" clip-rule="evenodd" d="M13.0127 39.5769C13.0146 39.0799 13.4191 38.6785 13.9162 38.6804L41.2968 38.7862C41.7939 38.7881 42.1953 39.1926 42.1933 39.6896C42.1914 40.1867 41.7869 40.5881 41.2899 40.5862L13.9092 40.4804C13.4122 40.4785 13.0108 40.074 13.0127 39.5769Z" fill="#34576F"/>
<path d="M13.9127 39.5804L27.5117 15.752L13.9127 39.5804Z" fill="#34576F"/>
<path fill-rule="evenodd" clip-rule="evenodd" d="M27.9578 14.9703C28.3895 15.2167 28.5397 15.7664 28.2934 16.1981L14.6944 40.0265C14.448 40.4582 13.8983 40.6085 13.4666 40.3621C13.0349 40.1157 12.8847 39.566 13.1311 39.1343L26.7301 15.3059C26.9764 14.8742 27.5261 14.7239 27.9578 14.9703Z" fill="#34576F"/>
<path d="M13.9127 39.5804L29.4992 56.3751L13.9127 39.5804Z" fill="#34576F"/>
<path fill-rule="evenodd" clip-rule="evenodd" d="M13.3005 38.9207C13.6648 38.5826 14.2343 38.6039 14.5724 38.9682L30.1589 55.7629C30.497 56.1272 30.4758 56.6967 30.1114 57.0348C29.7471 57.3729 29.1777 57.3517 28.8395 56.9873L13.253 40.1926C12.9149 39.8283 12.9361 39.2589 13.3005 38.9207Z" fill="#34576F"/>
<path d="M13.9128 39.5805L7.20007 17.6488L13.9128 39.5805Z" fill="#34576F"/>
<path fill-rule="evenodd" clip-rule="evenodd" d="M6.93664 16.7882C7.41193 16.6427 7.91516 16.9101 8.06064 17.3854L14.7733 39.317C14.9188 39.7923 14.6514 40.2956 14.1761 40.441C13.7008 40.5865 13.1976 40.3191 13.0521 39.8439L6.33945 17.9122C6.19398 17.4369 6.46135 16.9337 6.93664 16.7882Z" fill="#34576F"/>
<path d="M46.0186 20.9948L51.5029 17.8199L46.0186 20.9948Z" fill="#34576F"/>
<path fill-rule="evenodd" clip-rule="evenodd" d="M52.2818 17.369C52.5308 17.7992 52.384 18.3498 51.9538 18.5989L46.4695 21.7737C46.0393 22.0227 45.4887 21.8758 45.2397 21.4457C44.9906 21.0155 45.1375 20.4649 45.5677 20.2159L51.052 17.041C51.4822 16.792 52.0328 16.9389 52.2818 17.369Z" fill="#34576F"/>
<path d="M46.0185 20.9948L32.4196 44.8232L46.0185 20.9948Z" fill="#34576F"/>
<path fill-rule="evenodd" clip-rule="evenodd" d="M46.4646 20.2131C46.8963 20.4595 47.0466 21.0092 46.8002 21.4409L33.2012 45.2693C32.9549 45.701 32.4052 45.8513 31.9735 45.6049C31.5418 45.3585 31.3915 44.8088 31.6379 44.3771L45.2369 20.5487C45.4833 20.117 46.0329 19.9667 46.4646 20.2131Z" fill="#34576F"/>
<path d="M46.0186 20.9947L18.6379 20.8889L46.0186 20.9947Z" fill="#34576F"/>
<path fill-rule="evenodd" clip-rule="evenodd" d="M17.7379 20.8855C17.7398 20.3885 18.1443 19.9871 18.6414 19.989L46.022 20.0948C46.5191 20.0967 46.9205 20.5012 46.9186 20.9982C46.9166 21.4953 46.5121 21.8967 46.0151 21.8948L18.6344 21.789C18.1374 21.7871 17.736 21.3826 17.7379 20.8855Z" fill="#34576F"/>
<path d="M46.0186 20.9948L52.7312 42.9264L46.0186 20.9948Z" fill="#34576F"/>
<path fill-rule="evenodd" clip-rule="evenodd" d="M45.7551 20.1341C46.2304 19.9887 46.7336 20.256 46.8791 20.7313L53.5918 42.663C53.7373 43.1383 53.4699 43.6415 52.9946 43.787C52.5193 43.9325 52.0161 43.6651 51.8706 43.1898L45.1579 21.2581C45.0125 20.7828 45.2798 20.2796 45.7551 20.1341Z" fill="#34576F"/>
<path d="M46.0185 20.9948L30.432 4.20007L46.0185 20.9948Z" fill="#34576F"/>
<path fill-rule="evenodd" clip-rule="evenodd" d="M29.8198 3.54037C30.1841 3.20225 30.7535 3.2235 31.0917 3.58783L46.6782 20.3825C47.0163 20.7469 46.9951 21.3163 46.6307 21.6544C46.2664 21.9926 45.6969 21.9713 45.3588 21.607L29.7723 4.81228C29.4342 4.44795 29.4554 3.87849 29.8198 3.54037Z" fill="#34576F"/>
<path d="M8.42834 42.7552L32.4195 44.8232L8.42834 42.7552Z" fill="#34576F"/>
<path fill-rule="evenodd" clip-rule="evenodd" d="M7.5317 42.678C7.57438 42.1828 8.01044 41.8159 8.50566 41.8586L32.4968 43.9265C32.992 43.9692 33.3589 44.4052 33.3162 44.9005C33.2735 45.3957 32.8375 45.7625 32.3422 45.7199L8.35108 43.652C7.85586 43.6093 7.48901 43.1732 7.5317 42.678Z" fill="#34576F"/>
<path d="M8.42834 42.7552L18.6378 20.8889L8.42834 42.7552Z" fill="#34576F"/>
<path fill-rule="evenodd" clip-rule="evenodd" d="M19.0187 20.0735C19.469 20.2838 19.6637 20.8194 19.4534 21.2697L9.2439 43.1361C9.03362 43.5864 8.49804 43.7811 8.04766 43.5708C7.59727 43.3605 7.40264 42.8249 7.61292 42.3745L17.8224 20.5082C18.0327 20.0578 18.5683 19.8632 19.0187 20.0735Z" fill="#34576F"/>
<path d="M8.42834 42.7552L29.4992 56.3751L8.42834 42.7552Z" fill="#34576F"/>
<path fill-rule="evenodd" clip-rule="evenodd" d="M7.67258 42.2668C7.94241 41.8493 8.49955 41.7297 8.91699 41.9995L29.9878 55.6194C30.4053 55.8892 30.5249 56.4463 30.2551 56.8638C29.9853 57.2812 29.4281 57.4009 29.0107 57.1311L7.93986 43.5112C7.52242 43.2413 7.40275 42.6842 7.67258 42.2668Z" fill="#34576F"/>
<path d="M8.42843 42.7553L7.20007 17.6488L8.42843 42.7553Z" fill="#34576F"/>
<path fill-rule="evenodd" clip-rule="evenodd" d="M7.15609 16.7499C7.65255 16.7256 8.0747 17.1084 8.09899 17.6048L9.32735 42.7113C9.35164 43.2078 8.96887 43.6299 8.47241 43.6542C7.97595 43.6785 7.55379 43.2957 7.5295 42.7993L6.30114 17.6928C6.27685 17.1963 6.65963 16.7742 7.15609 16.7499Z" fill="#34576F"/>
<path d="M51.5028 17.8199L41.2933 39.6863L51.5028 17.8199Z" fill="#34576F"/>
<path fill-rule="evenodd" clip-rule="evenodd" d="M51.8836 17.0044C52.334 17.2147 52.5287 17.7503 52.3184 18.2006L42.1089 40.067C41.8986 40.5173 41.363 40.712 40.9126 40.5017C40.4623 40.2914 40.2676 39.7558 40.4779 39.3055L50.6874 17.4391C50.8977 16.9888 51.4333 16.7941 51.8836 17.0044Z" fill="#34576F"/>
<path d="M51.5029 17.8199L27.5117 15.752L51.5029 17.8199Z" fill="#34576F"/>
<path fill-rule="evenodd" clip-rule="evenodd" d="M26.6151 15.6747C26.6578 15.1795 27.0938 14.8126 27.589 14.8553L51.5802 16.9232C52.0754 16.9659 52.4423 17.402 52.3996 17.8972C52.3569 18.3924 51.9208 18.7592 51.4256 18.7166L27.4345 16.6487C26.9392 16.606 26.5724 16.1699 26.6151 15.6747Z" fill="#34576F"/>
<path d="M51.5028 17.8199L52.7312 42.9264L51.5028 17.8199Z" fill="#34576F"/>
<path fill-rule="evenodd" clip-rule="evenodd" d="M51.4588 16.921C51.9553 16.8967 52.3774 17.2795 52.4017 17.776L53.6301 42.8825C53.6544 43.3789 53.2716 43.8011 52.7751 43.8254C52.2787 43.8497 51.8565 43.4669 51.8322 42.9704L50.6039 17.8639C50.5796 17.3675 50.9624 16.9453 51.4588 16.921Z" fill="#34576F"/>
<path d="M51.5028 17.82L30.432 4.20007L51.5028 17.82Z" fill="#34576F"/>
<path fill-rule="evenodd" clip-rule="evenodd" d="M29.6761 3.71147C29.946 3.29403 30.5031 3.17436 30.9205 3.44419L51.9914 17.0641C52.4088 17.3339 52.5285 17.891 52.2587 18.3085C51.9888 18.7259 51.4317 18.8456 51.0142 18.5758L29.9434 4.95588C29.526 4.68605 29.4063 4.12891 29.6761 3.71147Z" fill="#34576F"/>
<path d="M41.2934 39.6862L27.5117 15.752L41.2934 39.6862Z" fill="#34576F"/>
<path fill-rule="evenodd" clip-rule="evenodd" d="M27.0626 14.972C27.4934 14.724 28.0436 14.8721 28.2917 15.3029L42.0733 39.2371C42.3214 39.6678 42.1732 40.2181 41.7425 40.4661C41.3117 40.7141 40.7615 40.566 40.5134 40.1353L26.7318 16.2011C26.4838 15.7703 26.6319 15.22 27.0626 14.972Z" fill="#34576F"/>
<path d="M41.2934 39.6862L29.4993 56.3751L41.2934 39.6862Z" fill="#34576F"/>
<path fill-rule="evenodd" clip-rule="evenodd" d="M41.8127 38.9512C42.2187 39.2381 42.3152 39.7997 42.0283 40.2056L30.2342 56.8946C29.9473 57.3005 29.3857 57.397 28.9798 57.1101C28.5739 56.8233 28.4773 56.2617 28.7642 55.8557L40.5583 39.1668C40.8452 38.7609 41.4068 38.6644 41.8127 38.9512Z" fill="#34576F"/>
<path d="M41.2933 39.6862L52.7312 42.9263L41.2933 39.6862Z" fill="#34576F"/>
<path fill-rule="evenodd" clip-rule="evenodd" d="M40.4275 39.4409C40.563 38.9627 41.0605 38.6848 41.5387 38.8203L52.9766 42.0605C53.4548 42.196 53.7327 42.6935 53.5972 43.1717C53.4617 43.65 52.9642 43.9278 52.486 43.7923L41.0481 40.5522C40.5699 40.4167 40.292 39.9192 40.4275 39.4409Z" fill="#34576F"/>
<path d="M27.5117 15.752L7.20007 17.6487L27.5117 15.752Z" fill="#34576F"/>
<path fill-rule="evenodd" clip-rule="evenodd" d="M28.4078 15.6683C28.454 16.1632 28.0902 16.6019 27.5953 16.6481L7.28367 18.5449C6.78877 18.5911 6.3501 18.2274 6.30389 17.7325C6.25767 17.2376 6.6214 16.7989 7.11631 16.7527L27.428 14.8559C27.9229 14.8097 28.3615 15.1734 28.4078 15.6683Z" fill="#34576F"/>
<path d="M27.5117 15.7521L30.432 4.20007L27.5117 15.7521Z" fill="#34576F"/>
<path fill-rule="evenodd" clip-rule="evenodd" d="M30.6526 3.32747C31.1344 3.44929 31.4263 3.9387 31.3045 4.4206L28.3842 15.9726C28.2624 16.4545 27.773 16.7464 27.2911 16.6245C26.8092 16.5027 26.5173 16.0133 26.6391 15.5314L29.5594 3.97944C29.6812 3.49754 30.1707 3.20565 30.6526 3.32747Z" fill="#34576F"/>
<path d="M32.4196 44.8231L18.6379 20.8889L32.4196 44.8231Z" fill="#34576F"/>
<path fill-rule="evenodd" clip-rule="evenodd" d="M18.1888 20.109C18.6196 19.8609 19.1699 20.0091 19.4179 20.4398L33.1995 44.374C33.4476 44.8048 33.2995 45.355 32.8687 45.6031C32.438 45.8511 31.8877 45.703 31.6397 45.2722L17.858 21.338C17.61 20.9073 17.7581 20.357 18.1888 20.109Z" fill="#34576F"/>
<path d="M32.4196 44.8232L29.4993 56.3752L32.4196 44.8232Z" fill="#34576F"/>
<path fill-rule="evenodd" clip-rule="evenodd" d="M32.6401 43.9506C33.122 44.0725 33.4139 44.5619 33.2921 45.0438L30.3718 56.5957C30.2499 57.0776 29.7605 57.3695 29.2786 57.2477C28.7967 57.1259 28.5048 56.6365 28.6267 56.1546L31.547 44.6026C31.6688 44.1207 32.1582 43.8288 32.6401 43.9506Z" fill="#34576F"/>
<path d="M32.4196 44.8232L52.7312 42.9264L32.4196 44.8232Z" fill="#34576F"/>
<path fill-rule="evenodd" clip-rule="evenodd" d="M53.6274 42.8427C53.6736 43.3376 53.3098 43.7763 52.8149 43.8225L32.5033 45.7193C32.0084 45.7655 31.5697 45.4018 31.5235 44.9069C31.4773 44.412 31.841 43.9733 32.3359 43.9271L52.6476 42.0303C53.1425 41.9841 53.5811 42.3478 53.6274 42.8427Z" fill="#34576F"/>
<path d="M18.6379 20.889L7.20007 17.6488L18.6379 20.889Z" fill="#34576F"/>
<path fill-rule="evenodd" clip-rule="evenodd" d="M6.33411 17.4035C6.46959 16.9252 6.9671 16.6474 7.44534 16.7828L18.8832 20.023C19.3614 20.1585 19.6393 20.656 19.5038 21.1343C19.3683 21.6125 18.8708 21.8904 18.3926 21.7549L6.95473 18.5147C6.47649 18.3792 6.19863 17.8817 6.33411 17.4035Z" fill="#34576F"/>
<path d="M18.6379 20.889L30.4321 4.20007L18.6379 20.889Z" fill="#34576F"/>
<path fill-rule="evenodd" clip-rule="evenodd" d="M30.9514 3.46501C31.3573 3.75188 31.4539 4.3135 31.167 4.71942L19.3729 21.4084C19.086 21.8143 18.5244 21.9108 18.1184 21.6239C17.7125 21.3371 17.616 20.7755 17.9029 20.3695L29.697 3.68058C29.9839 3.27466 30.5455 3.17815 30.9514 3.46501Z" fill="#34576F"/>
<path d="M29.4993 56.3752L52.7312 42.9264L29.4993 56.3752Z" fill="#34576F"/>
<path fill-rule="evenodd" clip-rule="evenodd" d="M53.5102 42.4755C53.7592 42.9057 53.6123 43.4563 53.1821 43.7053L29.9502 57.1541C29.52 57.4031 28.9694 57.2562 28.7204 56.8261C28.4713 56.3959 28.6182 55.8453 29.0484 55.5963L52.2803 42.1475C52.7105 41.8985 53.2611 42.0453 53.5102 42.4755Z" fill="#34576F"/>
<path d="M7.20007 17.6488L30.4321 4.20007L7.20007 17.6488Z" fill="#34576F"/>
<path fill-rule="evenodd" clip-rule="evenodd" d="M31.211 3.74918C31.46 4.17935 31.3131 4.72995 30.883 4.97898L7.65098 18.4277C7.2208 18.6768 6.6702 18.5299 6.42117 18.0997C6.17215 17.6696 6.319 17.119 6.74918 16.8699L29.9812 3.42117C30.4113 3.17215 30.9619 3.319 31.211 3.74918Z" fill="#34576F"/>
</svg>
