<svg width="36" height="36" viewBox="0 0 36 36" fill="none" xmlns="http://www.w3.org/2000/svg">
<path d="M26.4158 30.415L17.8105 35.3841L26.4158 30.415Z" fill="#967FC4"/>
<path fill-rule="evenodd" clip-rule="evenodd" d="M26.9354 30.115C27.1011 30.4019 27.0028 30.7689 26.7158 30.9346L18.1106 35.9037C17.8236 36.0694 17.4567 35.9711 17.291 35.6842C17.1252 35.3972 17.2235 35.0303 17.5105 34.8646L26.1157 29.8954C26.4027 29.7297 26.7697 29.828 26.9354 30.115Z" fill="#967FC4"/>
<path fill-rule="evenodd" clip-rule="evenodd" d="M8.60535 30.415C8.60535 30.0836 8.87398 29.815 9.20535 29.815H26.4158C26.7472 29.815 27.0158 30.0836 27.0158 30.415C27.0158 30.7464 26.7472 31.015 26.4158 31.015H9.20535C8.87398 31.015 8.60535 30.7464 8.60535 30.415Z" fill="#967FC4"/>
<path d="M26.4158 30.415L35.021 15.5076L26.4158 30.415Z" fill="#967FC4"/>
<path fill-rule="evenodd" clip-rule="evenodd" d="M35.321 14.9879C35.608 15.1536 35.7063 15.5205 35.5406 15.8075L26.9354 30.7149C26.7698 31.0019 26.4028 31.1003 26.1158 30.9346C25.8288 30.769 25.7305 30.402 25.8961 30.115L34.5014 15.2076C34.667 14.9206 35.034 14.8222 35.321 14.9879Z" fill="#967FC4"/>
<path d="M9.20533 0.600098L0.600098 5.56925L9.20533 0.600098Z" fill="#967FC4"/>
<path fill-rule="evenodd" clip-rule="evenodd" d="M9.72492 0.300059C9.89063 0.587021 9.79233 0.953983 9.50537 1.11969L0.900142 6.08884C0.613179 6.25455 0.246217 6.15625 0.0805089 5.86929C-0.0851995 5.58233 0.0130963 5.21537 0.300059 5.04966L8.90529 0.0805089C9.19225 -0.0851995 9.55921 0.0130963 9.72492 0.300059Z" fill="#967FC4"/>
<path d="M9.20533 0.600098L0.600098 15.5075L9.20533 0.600098Z" fill="#967FC4"/>
<path fill-rule="evenodd" clip-rule="evenodd" d="M9.50529 0.080461C9.79228 0.246123 9.89063 0.61307 9.72497 0.900059L1.11974 15.8075C0.954077 16.0945 0.587131 16.1928 0.300142 16.0272C0.013153 15.8615 -0.0852015 15.4946 0.080461 15.2076L8.68569 0.300142C8.85135 0.013153 9.2183 -0.0852015 9.50529 0.080461Z" fill="#967FC4"/>
<path fill-rule="evenodd" clip-rule="evenodd" d="M8.60535 0.600107C8.60535 0.268736 8.87398 0.000106812 9.20535 0.000106812H26.4158C26.7472 0.000106812 27.0158 0.268736 27.0158 0.600107C27.0158 0.931478 26.7472 1.20011 26.4158 1.20011H9.20535C8.87398 1.20011 8.60535 0.931478 8.60535 0.600107Z" fill="#967FC4"/>
<path fill-rule="evenodd" clip-rule="evenodd" d="M17.8106 24.8458C18.1419 24.8458 18.4106 25.1145 18.4106 25.4458L18.4106 35.3841C18.4106 35.7155 18.1419 35.9841 17.8106 35.9841C17.4792 35.9841 17.2106 35.7155 17.2106 35.3841L17.2106 25.4458C17.2106 25.1145 17.4792 24.8458 17.8106 24.8458Z" fill="#967FC4"/>
<path d="M17.8106 35.3841L9.20532 30.415L17.8106 35.3841Z" fill="#967FC4"/>
<path fill-rule="evenodd" clip-rule="evenodd" d="M8.68573 30.115C8.85144 29.828 9.2184 29.7297 9.50537 29.8954L18.1106 34.8646C18.3976 35.0303 18.4959 35.3972 18.3301 35.6842C18.1644 35.9711 17.7975 36.0694 17.5105 35.9037L8.90528 30.9346C8.61832 30.7689 8.52003 30.4019 8.68573 30.115Z" fill="#967FC4"/>
<path d="M0.600098 5.56924L9.20533 10.5384L0.600098 5.56924Z" fill="#967FC4"/>
<path fill-rule="evenodd" clip-rule="evenodd" d="M0.0805089 5.26921C0.246217 4.98224 0.613179 4.88395 0.900142 5.04966L9.50537 10.0188C9.79233 10.1845 9.89063 10.5515 9.72492 10.8384C9.55921 11.1254 9.19225 11.2237 8.90529 11.058L0.300059 6.08884C0.0130962 5.92313 -0.0851995 5.55617 0.0805089 5.26921Z" fill="#967FC4"/>
<path fill-rule="evenodd" clip-rule="evenodd" d="M0.600122 4.96925C0.931493 4.96925 1.20012 5.23788 1.20012 5.56925V15.5076C1.20012 15.8389 0.931493 16.1076 0.600122 16.1076C0.268751 16.1076 0.00012207 15.8389 0.00012207 15.5076V5.56925C0.00012207 5.23788 0.268751 4.96925 0.600122 4.96925Z" fill="#967FC4"/>
<path d="M17.8106 25.4458L9.20532 10.5384L17.8106 25.4458Z" fill="#967FC4"/>
<path fill-rule="evenodd" clip-rule="evenodd" d="M8.90537 10.0188C9.19236 9.85309 9.5593 9.95145 9.72496 10.2384L18.3302 25.1459C18.4959 25.4329 18.3975 25.7998 18.1105 25.9655C17.8235 26.1311 17.4566 26.0328 17.2909 25.7458L8.68569 10.8384C8.52002 10.5514 8.61838 10.1844 8.90537 10.0188Z" fill="#967FC4"/>
<path d="M17.8105 25.4458L26.4158 10.5384L17.8105 25.4458Z" fill="#967FC4"/>
<path fill-rule="evenodd" clip-rule="evenodd" d="M26.7157 10.0188C27.0027 10.1844 27.1011 10.5514 26.9354 10.8384L18.3302 25.7458C18.1645 26.0328 17.7976 26.1311 17.5106 25.9655C17.2236 25.7998 17.1252 25.4329 17.2909 25.1459L25.8961 10.2384C26.0618 9.95145 26.4287 9.85309 26.7157 10.0188Z" fill="#967FC4"/>
<path fill-rule="evenodd" clip-rule="evenodd" d="M8.60535 10.5384C8.60535 10.207 8.87398 9.9384 9.20535 9.9384H26.4158C26.7472 9.9384 27.0158 10.207 27.0158 10.5384C27.0158 10.8698 26.7472 11.1384 26.4158 11.1384H9.20535C8.87398 11.1384 8.60535 10.8698 8.60535 10.5384Z" fill="#967FC4"/>
<path d="M26.4158 10.5384L35.021 5.56924L26.4158 10.5384Z" fill="#967FC4"/>
<path fill-rule="evenodd" clip-rule="evenodd" d="M35.5406 5.26921C35.7063 5.55617 35.608 5.92313 35.321 6.08884L26.7158 11.058C26.4289 11.2237 26.0619 11.1254 25.8962 10.8384C25.7305 10.5515 25.8288 10.1845 26.1157 10.0188L34.721 5.04966C35.0079 4.88395 35.3749 4.98224 35.5406 5.26921Z" fill="#967FC4"/>
<path fill-rule="evenodd" clip-rule="evenodd" d="M35.021 4.96925C35.3524 4.96925 35.621 5.23788 35.621 5.56925V15.5076C35.621 15.8389 35.3524 16.1076 35.021 16.1076C34.6896 16.1076 34.421 15.8389 34.421 15.5076V5.56925C34.421 5.23788 34.6896 4.96925 35.021 4.96925Z" fill="#967FC4"/>
<path d="M35.021 5.56925L26.4158 0.600098L35.021 5.56925Z" fill="#967FC4"/>
<path fill-rule="evenodd" clip-rule="evenodd" d="M25.8962 0.300059C26.0619 0.0130963 26.4289 -0.0851995 26.7158 0.0805089L35.321 5.04966C35.608 5.21537 35.7063 5.58233 35.5406 5.86929C35.3749 6.15625 35.0079 6.25455 34.721 6.08884L26.1157 1.11969C25.8288 0.953983 25.7305 0.587021 25.8962 0.300059Z" fill="#967FC4"/>
<path d="M9.20533 30.415L0.600098 15.5076L9.20533 30.415Z" fill="#967FC4"/>
<path fill-rule="evenodd" clip-rule="evenodd" d="M0.300142 14.9879C0.587131 14.8222 0.954077 14.9206 1.11974 15.2076L9.72497 30.115C9.89063 30.402 9.79228 30.769 9.50529 30.9346C9.2183 31.1003 8.85135 31.0019 8.68569 30.7149L0.080461 15.8075C-0.0852015 15.5205 0.013153 15.1536 0.300142 14.9879Z" fill="#967FC4"/>
<path d="M35.021 15.5075L26.4158 0.600098L35.021 15.5075Z" fill="#967FC4"/>
<path fill-rule="evenodd" clip-rule="evenodd" d="M26.1158 0.080461C26.4028 -0.0852015 26.7698 0.013153 26.9354 0.300142L35.5406 15.2076C35.7063 15.4946 35.608 15.8615 35.321 16.0272C35.034 16.1928 34.667 16.0945 34.5014 15.8075L25.8961 0.900059C25.7305 0.61307 25.8288 0.246123 26.1158 0.080461Z" fill="#967FC4"/>
</svg>
