<svg width="40" height="40" viewBox="0 0 40 40" fill="none" xmlns="http://www.w3.org/2000/svg">
<path d="M20 29.6157L24.0898 32.5871L20 29.6157Z" fill="#967FC4"/>
<path fill-rule="evenodd" clip-rule="evenodd" d="M19.5146 29.263C19.7094 28.9949 20.0846 28.9355 20.3527 29.1303L24.4425 32.1017C24.7105 32.2965 24.77 32.6717 24.5752 32.9398C24.3804 33.2079 24.0052 33.2673 23.7371 33.0725L19.6473 30.1011C19.3792 29.9063 19.3198 29.5311 19.5146 29.263Z" fill="#967FC4"/>
<path d="M20 29.6157L25.6519 27.7793L20 29.6157Z" fill="#967FC4"/>
<path fill-rule="evenodd" clip-rule="evenodd" d="M26.2226 27.5939C26.325 27.909 26.1525 28.2475 25.8374 28.3499L20.1854 30.1863C19.8703 30.2887 19.5318 30.1163 19.4294 29.8011C19.327 29.486 19.4994 29.1475 19.8146 29.0451L25.4665 27.2086C25.7817 27.1062 26.1202 27.2787 26.2226 27.5939Z" fill="#967FC4"/>
<path d="M20 29.6157L14.3481 27.7793L20 29.6157Z" fill="#967FC4"/>
<path fill-rule="evenodd" clip-rule="evenodd" d="M13.7775 27.5939C13.8799 27.2787 14.2183 27.1062 14.5335 27.2086L20.1854 29.0451C20.5006 29.1475 20.6731 29.486 20.5707 29.8011C20.4683 30.1163 20.1298 30.2887 19.8146 30.1863L14.1627 28.3499C13.8475 28.2475 13.6751 27.909 13.7775 27.5939Z" fill="#967FC4"/>
<path d="M20 29.6157L15.9102 32.5871L20 29.6157Z" fill="#967FC4"/>
<path fill-rule="evenodd" clip-rule="evenodd" d="M20.4854 29.263C20.6802 29.5311 20.6208 29.9063 20.3527 30.1011L16.2629 33.0725C15.9948 33.2673 15.6196 33.2079 15.4248 32.9398C15.23 32.6717 15.2895 32.2965 15.5576 32.1017L19.6473 29.1303C19.9154 28.9355 20.2906 28.9949 20.4854 29.263Z" fill="#967FC4"/>
<path d="M20 29.6157L25.6519 27.7793L20 29.6157Z" fill="#967FC4"/>
<path fill-rule="evenodd" clip-rule="evenodd" d="M26.2226 27.5939C26.325 27.909 26.1525 28.2475 25.8374 28.3499L20.1854 30.1863C19.8703 30.2887 19.5318 30.1163 19.4294 29.8011C19.327 29.486 19.4994 29.1475 19.8146 29.0451L25.4665 27.2086C25.7817 27.1062 26.1202 27.2787 26.2226 27.5939Z" fill="#967FC4"/>
<path d="M20 29.6157L14.3481 27.7793L20 29.6157Z" fill="#967FC4"/>
<path fill-rule="evenodd" clip-rule="evenodd" d="M13.7775 27.5939C13.8799 27.2787 14.2183 27.1062 14.5335 27.2086L20.1854 29.0451C20.5006 29.1475 20.6731 29.486 20.5707 29.8011C20.4683 30.1163 20.1298 30.2887 19.8146 30.1863L14.1627 28.3499C13.8475 28.2475 13.6751 27.909 13.7775 27.5939Z" fill="#967FC4"/>
<path d="M20 10.3843L24.0898 7.4129L20 10.3843Z" fill="#967FC4"/>
<path fill-rule="evenodd" clip-rule="evenodd" d="M24.5752 7.06023C24.77 7.32831 24.7105 7.70354 24.4425 7.89831L20.3527 10.8697C20.0846 11.0645 19.7094 11.0051 19.5146 10.737C19.3198 10.4689 19.3792 10.0937 19.6473 9.8989L23.7371 6.92749C24.0052 6.73272 24.3804 6.79214 24.5752 7.06023Z" fill="#967FC4"/>
<path d="M20 10.3843L25.6519 12.2207L20 10.3843Z" fill="#967FC4"/>
<path fill-rule="evenodd" clip-rule="evenodd" d="M19.4294 10.1989C19.5318 9.88375 19.8703 9.71128 20.1854 9.81368L25.8374 11.6501C26.1525 11.7525 26.325 12.091 26.2226 12.4062C26.1202 12.7213 25.7817 12.8938 25.4665 12.7914L19.8146 10.9549C19.4994 10.8525 19.327 10.5141 19.4294 10.1989Z" fill="#967FC4"/>
<path d="M20 10.3843L14.3481 12.2207L20 10.3843Z" fill="#967FC4"/>
<path fill-rule="evenodd" clip-rule="evenodd" d="M20.5707 10.1989C20.6731 10.5141 20.5006 10.8525 20.1854 10.9549L14.5335 12.7914C14.2183 12.8938 13.8799 12.7213 13.7775 12.4062C13.6751 12.091 13.8475 11.7525 14.1627 11.6501L19.8146 9.81368C20.1298 9.71128 20.4683 9.88375 20.5707 10.1989Z" fill="#967FC4"/>
<path d="M20 10.3843L15.9102 7.4129L20 10.3843Z" fill="#967FC4"/>
<path fill-rule="evenodd" clip-rule="evenodd" d="M15.4248 7.06023C15.6196 6.79214 15.9948 6.73272 16.2629 6.92749L20.3527 9.8989C20.6208 10.0937 20.6802 10.4689 20.4854 10.737C20.2906 11.0051 19.9154 11.0645 19.6473 10.8697L15.5576 7.89831C15.2895 7.70354 15.23 7.32831 15.4248 7.06023Z" fill="#967FC4"/>
<path d="M20 10.3843L25.6519 12.2207L20 10.3843Z" fill="#967FC4"/>
<path fill-rule="evenodd" clip-rule="evenodd" d="M19.4294 10.1989C19.5318 9.88375 19.8703 9.71128 20.1854 9.81368L25.8374 11.6501C26.1525 11.7525 26.325 12.091 26.2226 12.4062C26.1202 12.7213 25.7817 12.8938 25.4665 12.7914L19.8146 10.9549C19.4994 10.8525 19.327 10.5141 19.4294 10.1989Z" fill="#967FC4"/>
<path d="M20 10.3843L14.3481 12.2207L20 10.3843Z" fill="#967FC4"/>
<path fill-rule="evenodd" clip-rule="evenodd" d="M20.5707 10.1989C20.6731 10.5141 20.5006 10.8525 20.1854 10.9549L14.5335 12.7914C14.2183 12.8938 13.8799 12.7213 13.7775 12.4062C13.6751 12.091 13.8475 11.7525 14.1627 11.6501L19.8146 9.81368C20.1298 9.71128 20.4683 9.88375 20.5707 10.1989Z" fill="#967FC4"/>
<path d="M22.5276 37.395L28.1796 35.5585L22.5276 37.395Z" fill="#967FC4"/>
<path fill-rule="evenodd" clip-rule="evenodd" d="M28.7502 35.3731C28.8526 35.6883 28.6802 36.0268 28.365 36.1292L22.7131 37.9656C22.3979 38.068 22.0594 37.8955 21.957 37.5804C21.8546 37.2652 22.0271 36.9267 22.3422 36.8243L27.9942 34.9879C28.3093 34.8855 28.6478 35.058 28.7502 35.3731Z" fill="#967FC4"/>
<path d="M22.5276 37.395L25.0553 35.5585L22.5276 37.395Z" fill="#967FC4"/>
<path fill-rule="evenodd" clip-rule="evenodd" d="M25.5407 35.2059C25.7355 35.4739 25.676 35.8492 25.408 36.0439L22.8803 37.8804C22.6122 38.0751 22.237 38.0157 22.0422 37.7476C21.8475 37.4795 21.9069 37.1043 22.175 36.9095L24.7026 35.0731C24.9707 34.8783 25.3459 34.9378 25.5407 35.2059Z" fill="#967FC4"/>
<path fill-rule="evenodd" clip-rule="evenodd" d="M16.8724 37.395C16.8724 37.0636 17.141 36.795 17.4724 36.795H22.5276C22.859 36.795 23.1276 37.0636 23.1276 37.395C23.1276 37.7263 22.859 37.995 22.5276 37.995H17.4724C17.141 37.995 16.8724 37.7263 16.8724 37.395Z" fill="#967FC4"/>
<path d="M22.5276 2.60505L28.1796 4.44148L22.5276 2.60505Z" fill="#967FC4"/>
<path fill-rule="evenodd" clip-rule="evenodd" d="M21.957 2.41964C22.0594 2.10449 22.3979 1.93202 22.7131 2.03442L28.365 3.87085C28.6802 3.97325 28.8526 4.31174 28.7502 4.6269C28.6478 4.94205 28.3093 5.11452 27.9942 5.01212L22.3422 3.17569C22.0271 3.07329 21.8546 2.73479 21.957 2.41964Z" fill="#967FC4"/>
<path d="M22.5276 2.60505L25.0553 4.44148L22.5276 2.60505Z" fill="#967FC4"/>
<path fill-rule="evenodd" clip-rule="evenodd" d="M22.0422 2.25238C22.237 1.9843 22.6122 1.92487 22.8803 2.11965L25.408 3.95608C25.676 4.15086 25.7355 4.52608 25.5407 4.79416C25.3459 5.06225 24.9707 5.12167 24.7026 4.9269L22.175 3.09046C21.9069 2.89569 21.8475 2.52047 22.0422 2.25238Z" fill="#967FC4"/>
<path fill-rule="evenodd" clip-rule="evenodd" d="M16.8724 2.60505C16.8724 2.27368 17.141 2.00505 17.4724 2.00505H22.5276C22.859 2.00505 23.1276 2.27368 23.1276 2.60505C23.1276 2.93642 22.859 3.20505 22.5276 3.20505H17.4724C17.141 3.20505 16.8724 2.93642 16.8724 2.60505Z" fill="#967FC4"/>
<path d="M24.0898 32.5871L25.6519 27.7793L24.0898 32.5871Z" fill="#967FC4"/>
<path fill-rule="evenodd" clip-rule="evenodd" d="M25.8374 27.2086C26.1525 27.311 26.325 27.6495 26.2226 27.9647L24.6604 32.7725C24.558 33.0877 24.2195 33.2601 23.9044 33.1577C23.5892 33.0553 23.4168 32.7169 23.5192 32.4017L25.0813 27.5939C25.1837 27.2787 25.5222 27.1062 25.8374 27.2086Z" fill="#967FC4"/>
<path d="M24.0898 32.5871L25.0553 35.5585L24.0898 32.5871Z" fill="#967FC4"/>
<path fill-rule="evenodd" clip-rule="evenodd" d="M23.9044 32.0165C24.2195 31.9141 24.558 32.0865 24.6604 32.4017L25.6259 35.3731C25.7283 35.6883 25.5558 36.0268 25.2407 36.1292C24.9255 36.2316 24.587 36.0591 24.4846 35.7439L23.5192 32.7725C23.4168 32.4574 23.5892 32.1189 23.9044 32.0165Z" fill="#967FC4"/>
<path d="M24.0898 7.4129L25.6519 12.2207L24.0898 7.4129Z" fill="#967FC4"/>
<path fill-rule="evenodd" clip-rule="evenodd" d="M23.9044 6.84226C24.2195 6.73987 24.558 6.91234 24.6604 7.22749L26.2226 12.0353C26.325 12.3505 26.1525 12.689 25.8374 12.7914C25.5222 12.8938 25.1837 12.7213 25.0813 12.4062L23.5192 7.59831C23.4168 7.28316 23.5892 6.94466 23.9044 6.84226Z" fill="#967FC4"/>
<path d="M24.0898 7.4129L25.0553 4.44149L24.0898 7.4129Z" fill="#967FC4"/>
<path fill-rule="evenodd" clip-rule="evenodd" d="M25.2407 3.87085C25.5558 3.97325 25.7283 4.31174 25.6259 4.6269L24.6604 7.59831C24.558 7.91346 24.2195 8.08593 23.9044 7.98353C23.5892 7.88113 23.4168 7.54264 23.5192 7.22749L24.4846 4.25608C24.587 3.94092 24.9255 3.76845 25.2407 3.87085Z" fill="#967FC4"/>
<path d="M3.64088 20L2.67542 22.9714L3.64088 20Z" fill="#967FC4"/>
<path fill-rule="evenodd" clip-rule="evenodd" d="M3.8263 19.4294C4.14145 19.5318 4.31392 19.8703 4.21152 20.1854L3.24605 23.1568C3.14365 23.472 2.80516 23.6444 2.49001 23.5421C2.17486 23.4397 2.00239 23.1012 2.10478 22.786L3.07025 19.8146C3.17265 19.4994 3.51114 19.327 3.8263 19.4294Z" fill="#967FC4"/>
<path d="M3.64088 20L2.67542 17.0286L3.64088 20Z" fill="#967FC4"/>
<path fill-rule="evenodd" clip-rule="evenodd" d="M2.49001 16.458C2.80516 16.3556 3.14365 16.528 3.24605 16.8432L4.21152 19.8146C4.31392 20.1297 4.14145 20.4682 3.8263 20.5706C3.51114 20.673 3.17265 20.5006 3.07025 20.1854L2.10478 17.214C2.00239 16.8988 2.17486 16.5604 2.49001 16.458Z" fill="#967FC4"/>
<path fill-rule="evenodd" clip-rule="evenodd" d="M3.04089 20C3.04089 19.6686 3.30952 19.4 3.64089 19.4H6.76521C7.09658 19.4 7.36521 19.6686 7.36521 20C7.36521 20.3314 7.09658 20.6 6.76521 20.6H3.64089C3.30952 20.6 3.04089 20.3314 3.04089 20Z" fill="#967FC4"/>
<path d="M7.73065 32.5871L11.8204 35.5585L7.73065 32.5871Z" fill="#967FC4"/>
<path fill-rule="evenodd" clip-rule="evenodd" d="M7.24525 32.2344C7.44002 31.9664 7.81525 31.9069 8.08333 32.1017L12.1731 35.0731C12.4412 35.2679 12.5006 35.6431 12.3059 35.9112C12.1111 36.1793 11.7359 36.2387 11.4678 36.0439L7.37799 33.0725C7.1099 32.8777 7.05047 32.5025 7.24525 32.2344Z" fill="#967FC4"/>
<path d="M7.73064 32.5871L4.23755 27.7793L7.73064 32.5871Z" fill="#967FC4"/>
<path fill-rule="evenodd" clip-rule="evenodd" d="M3.88488 27.2939C4.15297 27.0991 4.52819 27.1585 4.72297 27.4266L8.21606 32.2344C8.41083 32.5025 8.3514 32.8777 8.08332 33.0725C7.81523 33.2673 7.44001 33.2079 7.24523 32.9398L3.75214 28.1319C3.55737 27.8638 3.6168 27.4886 3.88488 27.2939Z" fill="#967FC4"/>
<path d="M7.73066 32.5871L6.7652 29.6157L7.73066 32.5871Z" fill="#967FC4"/>
<path fill-rule="evenodd" clip-rule="evenodd" d="M6.57979 29.0451C6.89494 28.9427 7.23344 29.1151 7.33583 29.4303L8.3013 32.4017C8.4037 32.7169 8.23123 33.0553 7.91608 33.1577C7.60092 33.2601 7.26243 33.0877 7.16003 32.7725L6.19457 29.8011C6.09217 29.486 6.26464 29.1475 6.57979 29.0451Z" fill="#967FC4"/>
<path d="M7.73065 7.4129L11.8204 4.44149L7.73065 7.4129Z" fill="#967FC4"/>
<path fill-rule="evenodd" clip-rule="evenodd" d="M12.3059 4.08882C12.5006 4.3569 12.4412 4.73212 12.1731 4.9269L8.08333 7.89831C7.81525 8.09309 7.44002 8.03366 7.24525 7.76557C7.05047 7.49749 7.1099 7.12227 7.37799 6.92749L11.4678 3.95608C11.7359 3.7613 12.1111 3.82073 12.3059 4.08882Z" fill="#967FC4"/>
<path d="M7.73064 7.4129L4.23755 12.2207L7.73064 7.4129Z" fill="#967FC4"/>
<path fill-rule="evenodd" clip-rule="evenodd" d="M8.08332 6.92749C8.3514 7.12226 8.41083 7.49749 8.21606 7.76557L4.72297 12.5734C4.52819 12.8415 4.15297 12.9009 3.88488 12.7062C3.6168 12.5114 3.55737 12.1362 3.75214 11.8681L7.24523 7.06023C7.44001 6.79215 7.81523 6.73272 8.08332 6.92749Z" fill="#967FC4"/>
<path d="M7.73066 7.4129L6.7652 10.3843L7.73066 7.4129Z" fill="#967FC4"/>
<path fill-rule="evenodd" clip-rule="evenodd" d="M7.91608 6.84226C8.23123 6.94466 8.4037 7.28316 8.3013 7.59831L7.33583 10.5697C7.23344 10.8849 6.89494 11.0573 6.57979 10.9549C6.26464 10.8525 6.09217 10.5141 6.19457 10.1989L7.16003 7.22749C7.26243 6.91234 7.60092 6.73987 7.91608 6.84226Z" fill="#967FC4"/>
<path fill-rule="evenodd" clip-rule="evenodd" d="M11.2205 35.5585C11.2205 35.2272 11.4891 34.9585 11.8205 34.9585H14.9448C15.2761 34.9585 15.5448 35.2272 15.5448 35.5585C15.5448 35.8899 15.2761 36.1585 14.9448 36.1585H11.8205C11.4891 36.1585 11.2205 35.8899 11.2205 35.5585Z" fill="#967FC4"/>
<path d="M11.8204 35.5585L17.4724 37.395L11.8204 35.5585Z" fill="#967FC4"/>
<path fill-rule="evenodd" clip-rule="evenodd" d="M11.2498 35.3731C11.3522 35.058 11.6907 34.8855 12.0058 34.9879L17.6578 36.8243C17.9729 36.9267 18.1454 37.2652 18.043 37.5804C17.9406 37.8955 17.6021 38.068 17.287 37.9656L11.635 36.1292C11.3199 36.0268 11.1474 35.6883 11.2498 35.3731Z" fill="#967FC4"/>
<path fill-rule="evenodd" clip-rule="evenodd" d="M11.2205 4.44148C11.2205 4.11011 11.4891 3.84148 11.8205 3.84148H14.9448C15.2761 3.84148 15.5448 4.11011 15.5448 4.44148C15.5448 4.77285 15.2761 5.04148 14.9448 5.04148H11.8205C11.4891 5.04148 11.2205 4.77285 11.2205 4.44148Z" fill="#967FC4"/>
<path d="M11.8204 4.44148L17.4724 2.60505L11.8204 4.44148Z" fill="#967FC4"/>
<path fill-rule="evenodd" clip-rule="evenodd" d="M18.043 2.41964C18.1454 2.73479 17.9729 3.07329 17.6578 3.17569L12.0058 5.01212C11.6907 5.11452 11.3522 4.94205 11.2498 4.6269C11.1474 4.31174 11.3199 3.97325 11.635 3.87085L17.287 2.03442C17.6021 1.93202 17.9406 2.10449 18.043 2.41964Z" fill="#967FC4"/>
<path d="M15.9102 32.5871L14.3481 27.7793L15.9102 32.5871Z" fill="#967FC4"/>
<path fill-rule="evenodd" clip-rule="evenodd" d="M14.1627 27.2086C14.4778 27.1062 14.8163 27.2787 14.9187 27.5939L16.4809 32.4017C16.5833 32.7169 16.4108 33.0553 16.0957 33.1577C15.7805 33.2601 15.442 33.0877 15.3396 32.7725L13.7775 27.9647C13.6751 27.6495 13.8475 27.311 14.1627 27.2086Z" fill="#967FC4"/>
<path d="M15.9102 32.5871L14.9448 35.5585L15.9102 32.5871Z" fill="#967FC4"/>
<path fill-rule="evenodd" clip-rule="evenodd" d="M16.0956 32.0165C16.4108 32.1189 16.5833 32.4574 16.4809 32.7725L15.5154 35.7439C15.413 36.0591 15.0745 36.2316 14.7594 36.1292C14.4442 36.0268 14.2717 35.6883 14.3741 35.3731L15.3396 32.4017C15.442 32.0865 15.7805 31.9141 16.0956 32.0165Z" fill="#967FC4"/>
<path d="M15.9102 7.4129L14.3481 12.2207L15.9102 7.4129Z" fill="#967FC4"/>
<path fill-rule="evenodd" clip-rule="evenodd" d="M16.0957 6.84226C16.4108 6.94466 16.5833 7.28316 16.4809 7.59831L14.9187 12.4062C14.8163 12.7213 14.4778 12.8938 14.1627 12.7914C13.8475 12.689 13.6751 12.3505 13.7775 12.0353L15.3396 7.22749C15.442 6.91234 15.7805 6.73987 16.0957 6.84226Z" fill="#967FC4"/>
<path d="M15.9102 7.4129L14.9448 4.44149L15.9102 7.4129Z" fill="#967FC4"/>
<path fill-rule="evenodd" clip-rule="evenodd" d="M14.7594 3.87085C15.0745 3.76845 15.413 3.94092 15.5154 4.25608L16.4809 7.22749C16.5833 7.54264 16.4108 7.88113 16.0956 7.98353C15.7805 8.08593 15.442 7.91346 15.3396 7.59831L14.3741 4.6269C14.2717 4.31174 14.4442 3.97325 14.7594 3.87085Z" fill="#967FC4"/>
<path d="M28.1796 35.5585L32.2694 32.5871L28.1796 35.5585Z" fill="#967FC4"/>
<path fill-rule="evenodd" clip-rule="evenodd" d="M32.7548 32.2344C32.9495 32.5025 32.8901 32.8777 32.622 33.0725L28.5322 36.0439C28.2642 36.2387 27.8889 36.1793 27.6942 35.9112C27.4994 35.6431 27.5588 35.2679 27.8269 35.0731L31.9167 32.1017C32.1848 31.9069 32.56 31.9664 32.7548 32.2344Z" fill="#967FC4"/>
<path fill-rule="evenodd" clip-rule="evenodd" d="M24.4553 35.5585C24.4553 35.2272 24.7239 34.9585 25.0553 34.9585H28.1796C28.5109 34.9585 28.7796 35.2272 28.7796 35.5585C28.7796 35.8899 28.5109 36.1585 28.1796 36.1585H25.0553C24.7239 36.1585 24.4553 35.8899 24.4553 35.5585Z" fill="#967FC4"/>
<path d="M28.1796 4.44149L32.2694 7.4129L28.1796 4.44149Z" fill="#967FC4"/>
<path fill-rule="evenodd" clip-rule="evenodd" d="M27.6942 4.08882C27.8889 3.82073 28.2642 3.7613 28.5322 3.95608L32.622 6.92749C32.8901 7.12227 32.9495 7.49749 32.7548 7.76557C32.56 8.03366 32.1848 8.09309 31.9167 7.89831L27.8269 4.9269C27.5588 4.73212 27.4994 4.3569 27.6942 4.08882Z" fill="#967FC4"/>
<path fill-rule="evenodd" clip-rule="evenodd" d="M24.4553 4.44148C24.4553 4.11011 24.7239 3.84148 25.0553 3.84148H28.1796C28.5109 3.84148 28.7796 4.11011 28.7796 4.44148C28.7796 4.77285 28.5109 5.04148 28.1796 5.04148H25.0553C24.7239 5.04148 24.4553 4.77285 24.4553 4.44148Z" fill="#967FC4"/>
<path fill-rule="evenodd" clip-rule="evenodd" d="M32.6348 20C32.6348 19.6686 32.9035 19.4 33.2348 19.4H36.3591C36.6905 19.4 36.9591 19.6686 36.9591 20C36.9591 20.3314 36.6905 20.6 36.3591 20.6H33.2348C32.9035 20.6 32.6348 20.3314 32.6348 20Z" fill="#967FC4"/>
<path d="M36.3591 20L37.3246 22.9714L36.3591 20Z" fill="#967FC4"/>
<path fill-rule="evenodd" clip-rule="evenodd" d="M36.1737 19.4294C36.4889 19.327 36.8274 19.4994 36.9298 19.8146L37.8952 22.786C37.9976 23.1012 37.8252 23.4397 37.51 23.5421C37.1949 23.6444 36.8564 23.472 36.754 23.1568L35.7885 20.1854C35.6861 19.8703 35.8586 19.5318 36.1737 19.4294Z" fill="#967FC4"/>
<path d="M36.3591 20L37.3246 17.0286L36.3591 20Z" fill="#967FC4"/>
<path fill-rule="evenodd" clip-rule="evenodd" d="M37.51 16.458C37.8252 16.5604 37.9976 16.8988 37.8952 17.214L36.9298 20.1854C36.8274 20.5006 36.4889 20.673 36.1737 20.5706C35.8586 20.4682 35.6861 20.1297 35.7885 19.8146L36.754 16.8432C36.8564 16.528 37.1949 16.3556 37.51 16.458Z" fill="#967FC4"/>
<path d="M30.7072 27.7793L33.2348 29.6157L30.7072 27.7793Z" fill="#967FC4"/>
<path fill-rule="evenodd" clip-rule="evenodd" d="M30.2218 27.4266C30.4166 27.1585 30.7918 27.0991 31.0599 27.2939L33.5875 29.1303C33.8556 29.3251 33.915 29.7003 33.7203 29.9684C33.5255 30.2365 33.1503 30.2959 32.8822 30.1011L30.3545 28.2647C30.0865 28.0699 30.027 27.6947 30.2218 27.4266Z" fill="#967FC4"/>
<path fill-rule="evenodd" clip-rule="evenodd" d="M25.0519 27.7793C25.0519 27.4479 25.3206 27.1793 25.6519 27.1793H30.7072C31.0386 27.1793 31.3072 27.4479 31.3072 27.7793C31.3072 28.1106 31.0386 28.3793 30.7072 28.3793H25.6519C25.3206 28.3793 25.0519 28.1106 25.0519 27.7793Z" fill="#967FC4"/>
<path d="M30.7072 27.7793L29.145 22.9714L30.7072 27.7793Z" fill="#967FC4"/>
<path fill-rule="evenodd" clip-rule="evenodd" d="M28.9596 22.4008C29.2748 22.2984 29.6133 22.4709 29.7157 22.786L31.2778 27.5939C31.3802 27.909 31.2077 28.2475 30.8926 28.3499C30.5774 28.4523 30.2389 28.2798 30.1365 27.9647L28.5744 23.1568C28.472 22.8417 28.6445 22.5032 28.9596 22.4008Z" fill="#967FC4"/>
<path d="M30.7072 12.2207L33.2348 10.3843L30.7072 12.2207Z" fill="#967FC4"/>
<path fill-rule="evenodd" clip-rule="evenodd" d="M33.7203 10.0316C33.915 10.2997 33.8556 10.6749 33.5875 10.8697L31.0599 12.7062C30.7918 12.9009 30.4166 12.8415 30.2218 12.5734C30.027 12.3053 30.0865 11.9301 30.3545 11.7353L32.8822 9.8989C33.1503 9.70413 33.5255 9.76356 33.7203 10.0316Z" fill="#967FC4"/>
<path fill-rule="evenodd" clip-rule="evenodd" d="M25.0519 12.2207C25.0519 11.8894 25.3206 11.6207 25.6519 11.6207H30.7072C31.0386 11.6207 31.3072 11.8894 31.3072 12.2207C31.3072 12.5521 31.0386 12.8207 30.7072 12.8207H25.6519C25.3206 12.8207 25.0519 12.5521 25.0519 12.2207Z" fill="#967FC4"/>
<path d="M30.7072 12.2207L29.145 17.0286L30.7072 12.2207Z" fill="#967FC4"/>
<path fill-rule="evenodd" clip-rule="evenodd" d="M30.8926 11.6501C31.2077 11.7525 31.3802 12.091 31.2778 12.4062L29.7157 17.214C29.6133 17.5292 29.2748 17.7016 28.9596 17.5992C28.6445 17.4968 28.472 17.1583 28.5744 16.8432L30.1365 12.0353C30.2389 11.7202 30.5774 11.5477 30.8926 11.6501Z" fill="#967FC4"/>
<path d="M32.2693 32.5871L33.2348 29.6157L32.2693 32.5871Z" fill="#967FC4"/>
<path fill-rule="evenodd" clip-rule="evenodd" d="M33.4202 29.0451C33.7354 29.1475 33.9079 29.486 33.8055 29.8011L32.84 32.7725C32.7376 33.0877 32.3991 33.2601 32.0839 33.1577C31.7688 33.0553 31.5963 32.7169 31.6987 32.4017L32.6642 29.4303C32.7666 29.1151 33.1051 28.9427 33.4202 29.0451Z" fill="#967FC4"/>
<path d="M32.2693 32.5871L35.7624 27.7793L32.2693 32.5871Z" fill="#967FC4"/>
<path fill-rule="evenodd" clip-rule="evenodd" d="M36.1151 27.2939C36.3832 27.4886 36.4426 27.8638 36.2479 28.1319L32.7548 32.9398C32.56 33.2079 32.1848 33.2673 31.9167 33.0725C31.6486 32.8777 31.5892 32.5025 31.7839 32.2344L35.277 27.4266C35.4718 27.1585 35.847 27.0991 36.1151 27.2939Z" fill="#967FC4"/>
<path d="M32.2693 7.4129L33.2348 10.3843L32.2693 7.4129Z" fill="#967FC4"/>
<path fill-rule="evenodd" clip-rule="evenodd" d="M32.0839 6.84226C32.3991 6.73987 32.7376 6.91234 32.84 7.22749L33.8055 10.1989C33.9079 10.5141 33.7354 10.8525 33.4202 10.9549C33.1051 11.0573 32.7666 10.8849 32.6642 10.5697L31.6987 7.59831C31.5963 7.28316 31.7688 6.94466 32.0839 6.84226Z" fill="#967FC4"/>
<path d="M32.2693 7.4129L35.7624 12.2207L32.2693 7.4129Z" fill="#967FC4"/>
<path fill-rule="evenodd" clip-rule="evenodd" d="M31.9167 6.92749C32.1848 6.73272 32.56 6.79215 32.7548 7.06023L36.2479 11.8681C36.4426 12.1362 36.3832 12.5114 36.1151 12.7062C35.847 12.9009 35.4718 12.8415 35.277 12.5734L31.7839 7.76557C31.5892 7.49749 31.6486 7.12226 31.9167 6.92749Z" fill="#967FC4"/>
<path d="M33.2348 20L29.145 22.9714L33.2348 20Z" fill="#967FC4"/>
<path fill-rule="evenodd" clip-rule="evenodd" d="M33.7202 19.6473C33.915 19.9154 33.8556 20.2906 33.5875 20.4854L29.4977 23.4568C29.2296 23.6516 28.8544 23.5922 28.6596 23.3241C28.4648 23.056 28.5243 22.6808 28.7924 22.486L32.8821 19.5146C33.1502 19.3198 33.5254 19.3792 33.7202 19.6473Z" fill="#967FC4"/>
<path d="M33.2348 20L29.145 17.0286L33.2348 20Z" fill="#967FC4"/>
<path fill-rule="evenodd" clip-rule="evenodd" d="M28.6596 16.6759C28.8544 16.4078 29.2296 16.3484 29.4977 16.5432L33.5875 19.5146C33.8556 19.7094 33.915 20.0846 33.7202 20.3527C33.5254 20.6208 33.1502 20.6802 32.8821 20.4854L28.7924 17.514C28.5243 17.3192 28.4648 16.944 28.6596 16.6759Z" fill="#967FC4"/>
<path d="M33.2348 29.6157L35.7624 27.7793L33.2348 29.6157Z" fill="#967FC4"/>
<path fill-rule="evenodd" clip-rule="evenodd" d="M36.2478 27.4266C36.4426 27.6947 36.3832 28.0699 36.1151 28.2647L33.5875 30.1011C33.3194 30.2959 32.9442 30.2365 32.7494 29.9684C32.5546 29.7003 32.6141 29.3251 32.8821 29.1303L35.4098 27.2939C35.6778 27.0991 36.0531 27.1585 36.2478 27.4266Z" fill="#967FC4"/>
<path d="M33.2348 10.3843L35.7624 12.2207L33.2348 10.3843Z" fill="#967FC4"/>
<path fill-rule="evenodd" clip-rule="evenodd" d="M32.7494 10.0316C32.9442 9.76356 33.3194 9.70413 33.5875 9.8989L36.1151 11.7353C36.3832 11.9301 36.4426 12.3053 36.2478 12.5734C36.0531 12.8415 35.6778 12.9009 35.4098 12.7062L32.8821 10.8697C32.6141 10.6749 32.5546 10.2997 32.7494 10.0316Z" fill="#967FC4"/>
<path d="M4.23757 27.7793L2.67542 22.9714L4.23757 27.7793Z" fill="#967FC4"/>
<path fill-rule="evenodd" clip-rule="evenodd" d="M2.49001 22.4008C2.80516 22.2984 3.14365 22.4709 3.24605 22.786L4.80821 27.5939C4.91061 27.909 4.73814 28.2475 4.42299 28.3499C4.10783 28.4523 3.76934 28.2798 3.66694 27.9647L2.10478 23.1568C2.00239 22.8417 2.17486 22.5032 2.49001 22.4008Z" fill="#967FC4"/>
<path d="M4.23755 27.7793L6.76517 29.6157L4.23755 27.7793Z" fill="#967FC4"/>
<path fill-rule="evenodd" clip-rule="evenodd" d="M3.75215 27.4266C3.94692 27.1585 4.32214 27.0991 4.59023 27.2939L7.11785 29.1303C7.38594 29.3251 7.44536 29.7003 7.25059 29.9684C7.05581 30.2365 6.68059 30.2959 6.41251 30.1011L3.88488 28.2647C3.6168 28.0699 3.55737 27.6947 3.75215 27.4266Z" fill="#967FC4"/>
<path d="M4.23757 12.2207L2.67542 17.0286L4.23757 12.2207Z" fill="#967FC4"/>
<path fill-rule="evenodd" clip-rule="evenodd" d="M4.42299 11.6501C4.73814 11.7525 4.91061 12.091 4.80821 12.4062L3.24605 17.214C3.14365 17.5292 2.80516 17.7016 2.49001 17.5992C2.17486 17.4968 2.00239 17.1583 2.10478 16.8432L3.66694 12.0353C3.76934 11.7202 4.10783 11.5477 4.42299 11.6501Z" fill="#967FC4"/>
<path d="M4.23755 12.2207L6.76517 10.3843L4.23755 12.2207Z" fill="#967FC4"/>
<path fill-rule="evenodd" clip-rule="evenodd" d="M7.25059 10.0316C7.44536 10.2997 7.38594 10.6749 7.11785 10.8697L4.59023 12.7062C4.32214 12.9009 3.94692 12.8415 3.75215 12.5734C3.55737 12.3053 3.6168 11.9301 3.88488 11.7353L6.41251 9.8989C6.68059 9.70413 7.05581 9.76356 7.25059 10.0316Z" fill="#967FC4"/>
<path d="M35.7625 27.7793L37.3246 22.9714L35.7625 27.7793Z" fill="#967FC4"/>
<path fill-rule="evenodd" clip-rule="evenodd" d="M37.51 22.4008C37.8252 22.5032 37.9976 22.8417 37.8952 23.1568L36.3331 27.9647C36.2307 28.2798 35.8922 28.4523 35.577 28.3499C35.2619 28.2475 35.0894 27.909 35.1918 27.5939L36.754 22.786C36.8564 22.4709 37.1949 22.2984 37.51 22.4008Z" fill="#967FC4"/>
<path d="M35.7625 12.2207L37.3246 17.0286L35.7625 12.2207Z" fill="#967FC4"/>
<path fill-rule="evenodd" clip-rule="evenodd" d="M35.577 11.6501C35.8922 11.5477 36.2307 11.7202 36.3331 12.0353L37.8952 16.8432C37.9976 17.1583 37.8252 17.4968 37.51 17.5992C37.1949 17.7016 36.8564 17.5292 36.754 17.214L35.1918 12.4062C35.0894 12.091 35.2619 11.7525 35.577 11.6501Z" fill="#967FC4"/>
<path fill-rule="evenodd" clip-rule="evenodd" d="M37.3246 16.4286C37.656 16.4286 37.9246 16.6972 37.9246 17.0286V22.9714C37.9246 23.3028 37.656 23.5714 37.3246 23.5714C36.9932 23.5714 36.7246 23.3028 36.7246 22.9714V17.0286C36.7246 16.6972 36.9932 16.4286 37.3246 16.4286Z" fill="#967FC4"/>
<path fill-rule="evenodd" clip-rule="evenodd" d="M2.67544 16.4286C3.00681 16.4286 3.27544 16.6972 3.27544 17.0286V22.9714C3.27544 23.3028 3.00681 23.5714 2.67544 23.5714C2.34407 23.5714 2.07544 23.3028 2.07544 22.9714V17.0286C2.07544 16.6972 2.34407 16.4286 2.67544 16.4286Z" fill="#967FC4"/>
<path d="M25.652 27.7793L29.1451 22.9714L25.652 27.7793Z" fill="#967FC4"/>
<path fill-rule="evenodd" clip-rule="evenodd" d="M29.4977 22.486C29.7658 22.6808 29.8253 23.056 29.6305 23.3241L26.1374 28.1319C25.9426 28.4 25.5674 28.4594 25.2993 28.2647C25.0312 28.0699 24.9718 27.6947 25.1666 27.4266L28.6597 22.6187C28.8544 22.3507 29.2297 22.2912 29.4977 22.486Z" fill="#967FC4"/>
<path d="M25.652 27.7793L29.1451 22.9714L25.652 27.7793Z" fill="#967FC4"/>
<path fill-rule="evenodd" clip-rule="evenodd" d="M29.4977 22.486C29.7658 22.6808 29.8253 23.056 29.6305 23.3241L26.1374 28.1319C25.9426 28.4 25.5674 28.4594 25.2993 28.2647C25.0312 28.0699 24.9718 27.6947 25.1666 27.4266L28.6597 22.6187C28.8544 22.3507 29.2297 22.2912 29.4977 22.486Z" fill="#967FC4"/>
<path d="M25.652 12.2207L29.1451 17.0286L25.652 12.2207Z" fill="#967FC4"/>
<path fill-rule="evenodd" clip-rule="evenodd" d="M25.2993 11.7353C25.5674 11.5406 25.9426 11.6 26.1374 11.8681L29.6305 16.6759C29.8253 16.944 29.7658 17.3192 29.4977 17.514C29.2297 17.7088 28.8544 17.6493 28.6597 17.3813L25.1666 12.5734C24.9718 12.3053 25.0312 11.9301 25.2993 11.7353Z" fill="#967FC4"/>
<path d="M25.652 12.2207L29.1451 17.0286L25.652 12.2207Z" fill="#967FC4"/>
<path fill-rule="evenodd" clip-rule="evenodd" d="M25.2993 11.7353C25.5674 11.5406 25.9426 11.6 26.1374 11.8681L29.6305 16.6759C29.8253 16.944 29.7658 17.3192 29.4977 17.514C29.2297 17.7088 28.8544 17.6493 28.6597 17.3813L25.1666 12.5734C24.9718 12.3053 25.0312 11.9301 25.2993 11.7353Z" fill="#967FC4"/>
<path d="M14.3481 27.7793L10.855 22.9714L14.3481 27.7793Z" fill="#967FC4"/>
<path fill-rule="evenodd" clip-rule="evenodd" d="M10.5023 22.486C10.7704 22.2912 11.1456 22.3507 11.3404 22.6187L14.8335 27.4266C15.0283 27.6947 14.9688 28.0699 14.7007 28.2647C14.4327 28.4594 14.0574 28.4 13.8627 28.1319L10.3696 23.3241C10.1748 23.056 10.2342 22.6808 10.5023 22.486Z" fill="#967FC4"/>
<path fill-rule="evenodd" clip-rule="evenodd" d="M8.69281 27.7793C8.69281 27.4479 8.96144 27.1793 9.29281 27.1793H14.3481C14.6794 27.1793 14.9481 27.4479 14.9481 27.7793C14.9481 28.1106 14.6794 28.3793 14.3481 28.3793H9.29281C8.96144 28.3793 8.69281 28.1106 8.69281 27.7793Z" fill="#967FC4"/>
<path d="M14.3481 27.7793L10.855 22.9714L14.3481 27.7793Z" fill="#967FC4"/>
<path fill-rule="evenodd" clip-rule="evenodd" d="M10.5023 22.486C10.7704 22.2912 11.1456 22.3507 11.3404 22.6187L14.8335 27.4266C15.0283 27.6947 14.9688 28.0699 14.7007 28.2647C14.4327 28.4594 14.0574 28.4 13.8627 28.1319L10.3696 23.3241C10.1748 23.056 10.2342 22.6808 10.5023 22.486Z" fill="#967FC4"/>
<path d="M14.3481 12.2207L10.855 17.0286L14.3481 12.2207Z" fill="#967FC4"/>
<path fill-rule="evenodd" clip-rule="evenodd" d="M14.7007 11.7353C14.9688 11.9301 15.0283 12.3053 14.8335 12.5734L11.3404 17.3813C11.1456 17.6493 10.7704 17.7088 10.5023 17.514C10.2342 17.3192 10.1748 16.944 10.3696 16.6759L13.8627 11.8681C14.0574 11.6 14.4327 11.5406 14.7007 11.7353Z" fill="#967FC4"/>
<path fill-rule="evenodd" clip-rule="evenodd" d="M8.69281 12.2207C8.69281 11.8894 8.96144 11.6207 9.29281 11.6207H14.3481C14.6794 11.6207 14.9481 11.8894 14.9481 12.2207C14.9481 12.5521 14.6794 12.8207 14.3481 12.8207H9.29281C8.96144 12.8207 8.69281 12.5521 8.69281 12.2207Z" fill="#967FC4"/>
<path d="M14.3481 12.2207L10.855 17.0286L14.3481 12.2207Z" fill="#967FC4"/>
<path fill-rule="evenodd" clip-rule="evenodd" d="M14.7007 11.7353C14.9688 11.9301 15.0283 12.3053 14.8335 12.5734L11.3404 17.3813C11.1456 17.6493 10.7704 17.7088 10.5023 17.514C10.2342 17.3192 10.1748 16.944 10.3696 16.6759L13.8627 11.8681C14.0574 11.6 14.4327 11.5406 14.7007 11.7353Z" fill="#967FC4"/>
<path fill-rule="evenodd" clip-rule="evenodd" d="M10.855 16.4286C11.1864 16.4286 11.455 16.6972 11.455 17.0286V22.9714C11.455 23.3028 11.1864 23.5714 10.855 23.5714C10.5236 23.5714 10.255 23.3028 10.255 22.9714V17.0286C10.255 16.6972 10.5236 16.4286 10.855 16.4286Z" fill="#967FC4"/>
<path d="M10.855 22.9714L9.29285 27.7793L10.855 22.9714Z" fill="#967FC4"/>
<path fill-rule="evenodd" clip-rule="evenodd" d="M11.0404 22.4008C11.3556 22.5032 11.528 22.8417 11.4256 23.1568L9.86348 27.9647C9.76109 28.2798 9.42259 28.4523 9.10744 28.3499C8.79229 28.2475 8.61982 27.909 8.72222 27.5939L10.2844 22.786C10.3868 22.4709 10.7253 22.2984 11.0404 22.4008Z" fill="#967FC4"/>
<path fill-rule="evenodd" clip-rule="evenodd" d="M10.855 16.4286C11.1864 16.4286 11.455 16.6972 11.455 17.0286V22.9714C11.455 23.3028 11.1864 23.5714 10.855 23.5714C10.5236 23.5714 10.255 23.3028 10.255 22.9714V17.0286C10.255 16.6972 10.5236 16.4286 10.855 16.4286Z" fill="#967FC4"/>
<path d="M10.855 22.9714L6.7652 20L10.855 22.9714Z" fill="#967FC4"/>
<path fill-rule="evenodd" clip-rule="evenodd" d="M6.27979 19.6473C6.47457 19.3792 6.84979 19.3198 7.11788 19.5146L11.2077 22.486C11.4757 22.6808 11.5352 23.056 11.3404 23.3241C11.1456 23.5922 10.7704 23.6516 10.5023 23.4568L6.41253 20.4854C6.14445 20.2906 6.08502 19.9154 6.27979 19.6473Z" fill="#967FC4"/>
<path d="M10.855 17.0286L9.29285 12.2207L10.855 17.0286Z" fill="#967FC4"/>
<path fill-rule="evenodd" clip-rule="evenodd" d="M9.10744 11.6501C9.42259 11.5477 9.76109 11.7202 9.86348 12.0353L11.4256 16.8432C11.528 17.1583 11.3556 17.4968 11.0404 17.5992C10.7253 17.7016 10.3868 17.5292 10.2844 17.214L8.72222 12.4062C8.61982 12.091 8.79229 11.7525 9.10744 11.6501Z" fill="#967FC4"/>
<path d="M10.855 17.0286L6.7652 20L10.855 17.0286Z" fill="#967FC4"/>
<path fill-rule="evenodd" clip-rule="evenodd" d="M11.3404 16.6759C11.5352 16.944 11.4757 17.3192 11.2077 17.514L7.11788 20.4854C6.84979 20.6802 6.47457 20.6208 6.27979 20.3527C6.08502 20.0846 6.14445 19.7094 6.41253 19.5146L10.5023 16.5432C10.7704 16.3484 11.1456 16.4078 11.3404 16.6759Z" fill="#967FC4"/>
<path fill-rule="evenodd" clip-rule="evenodd" d="M29.145 16.4286C29.4764 16.4286 29.745 16.6972 29.745 17.0286V22.9714C29.745 23.3028 29.4764 23.5714 29.145 23.5714C28.8137 23.5714 28.545 23.3028 28.545 22.9714V17.0286C28.545 16.6972 28.8137 16.4286 29.145 16.4286Z" fill="#967FC4"/>
<path fill-rule="evenodd" clip-rule="evenodd" d="M29.145 16.4286C29.4764 16.4286 29.745 16.6972 29.745 17.0286V22.9714C29.745 23.3028 29.4764 23.5714 29.145 23.5714C28.8137 23.5714 28.545 23.3028 28.545 22.9714V17.0286C28.545 16.6972 28.8137 16.4286 29.145 16.4286Z" fill="#967FC4"/>
<path d="M6.7652 29.6157L9.29282 27.7793L6.7652 29.6157Z" fill="#967FC4"/>
<path fill-rule="evenodd" clip-rule="evenodd" d="M9.77824 27.4266C9.97301 27.6947 9.91358 28.0699 9.6455 28.2647L7.11788 30.1011C6.84979 30.2959 6.47457 30.2365 6.27979 29.9684C6.08502 29.7003 6.14445 29.3251 6.41253 29.1303L8.94016 27.2939C9.20824 27.0991 9.58346 27.1585 9.77824 27.4266Z" fill="#967FC4"/>
<path d="M6.7652 10.3843L9.29282 12.2207L6.7652 10.3843Z" fill="#967FC4"/>
<path fill-rule="evenodd" clip-rule="evenodd" d="M6.27979 10.0316C6.47457 9.76356 6.84979 9.70413 7.11788 9.8989L9.6455 11.7353C9.91358 11.9301 9.97301 12.3053 9.77824 12.5734C9.58346 12.8415 9.20824 12.9009 8.94016 12.7062L6.41253 10.8697C6.14445 10.6749 6.08502 10.2997 6.27979 10.0316Z" fill="#967FC4"/>
<path d="M14.9448 35.5585L17.4724 37.395L14.9448 35.5585Z" fill="#967FC4"/>
<path fill-rule="evenodd" clip-rule="evenodd" d="M14.4594 35.2059C14.6541 34.9378 15.0294 34.8783 15.2974 35.0731L17.8251 36.9095C18.0931 37.1043 18.1526 37.4795 17.9578 37.7476C17.763 38.0157 17.3878 38.0751 17.1197 37.8804L14.5921 36.0439C14.324 35.8492 14.2646 35.4739 14.4594 35.2059Z" fill="#967FC4"/>
<path d="M14.9448 4.44148L17.4724 2.60505L14.9448 4.44148Z" fill="#967FC4"/>
<path fill-rule="evenodd" clip-rule="evenodd" d="M17.9578 2.25238C18.1526 2.52047 18.0931 2.89569 17.8251 3.09046L15.2974 4.9269C15.0294 5.12167 14.6541 5.06225 14.4594 4.79416C14.2646 4.52608 14.324 4.15086 14.5921 3.95608L17.1197 2.11965C17.3878 1.92487 17.763 1.9843 17.9578 2.25238Z" fill="#967FC4"/>
</svg>
