<svg width="40" height="41" viewBox="0 0 40 41" fill="none" xmlns="http://www.w3.org/2000/svg">
<path d="M20.0001 20.9843L9.24951 27.1804L20.0001 20.9843Z" fill="#967FC4"/>
<path fill-rule="evenodd" clip-rule="evenodd" d="M20.5199 20.6846C20.6854 20.9717 20.5868 21.3386 20.2997 21.5041L9.54913 27.7002C9.26203 27.8657 8.89515 27.7671 8.72968 27.48C8.5642 27.1929 8.6628 26.826 8.9499 26.6605L19.7004 20.4644C19.9875 20.2989 20.3544 20.3975 20.5199 20.6846Z" fill="#967FC4"/>
<path fill-rule="evenodd" clip-rule="evenodd" d="M20 7.99203C20.3314 7.99203 20.6 8.26066 20.6 8.59203V20.9843C20.6 21.3156 20.3314 21.5843 20 21.5843C19.6687 21.5843 19.4 21.3156 19.4 20.9843L19.4 8.59203C19.4 8.26066 19.6687 7.99203 20 7.99203Z" fill="#967FC4"/>
<path d="M20 20.9843L30.7505 27.1804L20 20.9843Z" fill="#967FC4"/>
<path fill-rule="evenodd" clip-rule="evenodd" d="M19.4802 20.6846C19.6456 20.3975 20.0125 20.2989 20.2996 20.4644L31.0502 26.6605C31.3373 26.826 31.4359 27.1929 31.2704 27.48C31.1049 27.7671 30.738 27.8657 30.4509 27.7002L19.7004 21.5041C19.4133 21.3386 19.3147 20.9717 19.4802 20.6846Z" fill="#967FC4"/>
<path fill-rule="evenodd" clip-rule="evenodd" d="M20 20.3842C20.3314 20.3842 20.6 20.6529 20.6 20.9842V33.3765C20.6 33.7078 20.3314 33.9765 20 33.9765C19.6687 33.9765 19.4 33.7078 19.4 33.3765L19.4 20.9842C19.4 20.6529 19.6687 20.3842 20 20.3842Z" fill="#967FC4"/>
<path d="M20 20.9843L30.7505 14.7881L20 20.9843Z" fill="#967FC4"/>
<path fill-rule="evenodd" clip-rule="evenodd" d="M31.2704 14.4885C31.4359 14.7756 31.3373 15.1425 31.0502 15.308L20.2996 21.5041C20.0125 21.6696 19.6456 21.571 19.4802 21.2839C19.3147 20.9968 19.4133 20.6299 19.7004 20.4644L30.4509 14.2683C30.738 14.1028 31.1049 14.2014 31.2704 14.4885Z" fill="#967FC4"/>
<path d="M20.0001 20.9843L9.24951 14.7881L20.0001 20.9843Z" fill="#967FC4"/>
<path fill-rule="evenodd" clip-rule="evenodd" d="M8.72968 14.4885C8.89515 14.2014 9.26203 14.1028 9.54913 14.2683L20.2997 20.4644C20.5868 20.6299 20.6854 20.9968 20.5199 21.2839C20.3544 21.571 19.9875 21.6696 19.7004 21.5041L8.9499 15.308C8.6628 15.1425 8.5642 14.7756 8.72968 14.4885Z" fill="#967FC4"/>
<path fill-rule="evenodd" clip-rule="evenodd" d="M12.7559 37.2059C12.7559 36.8745 13.0245 36.6059 13.3559 36.6059H26.6443C26.9756 36.6059 27.2443 36.8745 27.2443 37.2059C27.2443 37.5373 26.9756 37.8059 26.6443 37.8059H13.3559C13.0245 37.8059 12.7559 37.5373 12.7559 37.2059Z" fill="#967FC4"/>
<path d="M13.3559 37.2059L9.24951 27.1804L13.3559 37.2059Z" fill="#967FC4"/>
<path fill-rule="evenodd" clip-rule="evenodd" d="M9.02209 26.6252C9.32874 26.4996 9.67914 26.6463 9.80474 26.953L13.9111 36.9785C14.0367 37.2851 13.8899 37.6355 13.5833 37.7611C13.2766 37.8867 12.9262 37.74 12.8006 37.4333L8.69428 27.4078C8.56868 27.1012 8.71545 26.7508 9.02209 26.6252Z" fill="#967FC4"/>
<path d="M13.3559 37.2059L9.24951 34.8392L13.3559 37.2059Z" fill="#967FC4"/>
<path fill-rule="evenodd" clip-rule="evenodd" d="M8.72968 34.5396C8.89515 34.2525 9.26203 34.1539 9.54913 34.3194L13.6555 36.6861C13.9426 36.8515 14.0412 37.2184 13.8757 37.5055C13.7102 37.7926 13.3433 37.8912 13.0562 37.7257L8.9499 35.359C8.6628 35.1936 8.5642 34.8267 8.72968 34.5396Z" fill="#967FC4"/>
<path d="M30.7505 7.12933L37.3948 18.6176L30.7505 7.12933Z" fill="#967FC4"/>
<path fill-rule="evenodd" clip-rule="evenodd" d="M30.4502 6.60995C30.737 6.44404 31.104 6.5421 31.2699 6.82895L37.9141 18.3172C38.08 18.604 37.982 18.971 37.6951 19.137C37.4083 19.3029 37.0413 19.2048 36.8754 18.9179L30.2312 7.42972C30.0653 7.14287 30.1633 6.77585 30.4502 6.60995Z" fill="#967FC4"/>
<path d="M30.7505 7.12933L20 8.59204L30.7505 7.12933Z" fill="#967FC4"/>
<path fill-rule="evenodd" clip-rule="evenodd" d="M31.3451 7.04845C31.3898 7.37679 31.1598 7.67919 30.8315 7.72386L20.0809 9.18656C19.7526 9.23124 19.4502 9.00128 19.4055 8.67293C19.3608 8.34459 19.5908 8.04219 19.9191 7.99752L30.6697 6.53482C30.998 6.49014 31.3004 6.7201 31.3451 7.04845Z" fill="#967FC4"/>
<path d="M30.7506 7.12934L26.6442 4.76263L30.7506 7.12934Z" fill="#967FC4"/>
<path fill-rule="evenodd" clip-rule="evenodd" d="M26.1244 4.46303C26.2899 4.17593 26.6567 4.07733 26.9438 4.2428L31.0502 6.6095C31.3373 6.77497 31.4359 7.14185 31.2704 7.42895C31.1049 7.71605 30.7381 7.81465 30.451 7.64918L26.3446 5.28248C26.0575 5.11701 25.9589 4.75013 26.1244 4.46303Z" fill="#967FC4"/>
<path d="M20 33.3765L30.7505 34.8392L20 33.3765Z" fill="#967FC4"/>
<path fill-rule="evenodd" clip-rule="evenodd" d="M19.4055 33.2956C19.4502 32.9673 19.7526 32.7373 20.0809 32.782L30.8315 34.2447C31.1598 34.2894 31.3898 34.5917 31.3451 34.9201C31.3004 35.2484 30.998 35.4784 30.6697 35.4337L19.9191 33.971C19.5908 33.9263 19.3608 33.624 19.4055 33.2956Z" fill="#967FC4"/>
<path d="M20.0001 33.3765L9.24951 34.8392L20.0001 33.3765Z" fill="#967FC4"/>
<path fill-rule="evenodd" clip-rule="evenodd" d="M20.5946 33.2956C20.6392 33.624 20.4093 33.9263 20.0809 33.971L9.33038 35.4337C9.00203 35.4784 8.69964 35.2484 8.65496 34.9201C8.61029 34.5917 8.84025 34.2894 9.1686 34.2447L19.9191 32.782C20.2475 32.7373 20.5499 32.9673 20.5946 33.2956Z" fill="#967FC4"/>
<path d="M30.7505 14.7881L37.3948 23.351L30.7505 14.7881Z" fill="#967FC4"/>
<path fill-rule="evenodd" clip-rule="evenodd" d="M30.3828 14.3141C30.6446 14.111 31.0215 14.1585 31.2246 14.4203L37.8688 22.9831C38.072 23.2449 38.0244 23.6218 37.7626 23.825C37.5008 24.0281 37.1239 23.9806 36.9208 23.7188L30.2766 15.156C30.0734 14.8942 30.121 14.5172 30.3828 14.3141Z" fill="#967FC4"/>
<path d="M30.7506 14.7882L26.6442 4.76263L30.7506 14.7882Z" fill="#967FC4"/>
<path fill-rule="evenodd" clip-rule="evenodd" d="M26.4168 4.2074C26.7235 4.0818 27.0739 4.22857 27.1995 4.53522L31.3058 14.5607C31.4314 14.8674 31.2846 15.2178 30.978 15.3434C30.6713 15.469 30.3209 15.3222 30.1953 15.0156L26.089 4.99005C25.9634 4.6834 26.1102 4.333 26.4168 4.2074Z" fill="#967FC4"/>
<path d="M26.6442 37.2059L30.7506 34.8392L26.6442 37.2059Z" fill="#967FC4"/>
<path fill-rule="evenodd" clip-rule="evenodd" d="M31.2704 34.5396C31.4359 34.8267 31.3373 35.1936 31.0502 35.359L26.9438 37.7257C26.6567 37.8912 26.2899 37.7926 26.1244 37.5055C25.9589 37.2184 26.0575 36.8515 26.3446 36.6861L30.451 34.3194C30.7381 34.1539 31.1049 34.2525 31.2704 34.5396Z" fill="#967FC4"/>
<path d="M26.6442 37.2059L30.7506 27.1804L26.6442 37.2059Z" fill="#967FC4"/>
<path fill-rule="evenodd" clip-rule="evenodd" d="M30.978 26.6252C31.2846 26.7508 31.4314 27.1012 31.3058 27.4078L27.1995 37.4333C27.0739 37.74 26.7235 37.8867 26.4168 37.7611C26.1102 37.6355 25.9634 37.2851 26.089 36.9785L30.1953 26.953C30.3209 26.6463 30.6713 26.4996 30.978 26.6252Z" fill="#967FC4"/>
<path fill-rule="evenodd" clip-rule="evenodd" d="M37.3948 18.0175C37.7262 18.0175 37.9948 18.2862 37.9948 18.6175V23.351C37.9948 23.6823 37.7262 23.951 37.3948 23.951C37.0634 23.951 36.7948 23.6823 36.7948 23.351V18.6175C36.7948 18.2862 37.0634 18.0175 37.3948 18.0175Z" fill="#967FC4"/>
<path d="M37.3948 18.6176L30.7505 27.1804L37.3948 18.6176Z" fill="#967FC4"/>
<path fill-rule="evenodd" clip-rule="evenodd" d="M37.7626 18.1435C38.0244 18.3467 38.072 18.7236 37.8688 18.9854L31.2246 27.5482C31.0215 27.81 30.6446 27.8575 30.3828 27.6544C30.121 27.4513 30.0734 27.0743 30.2766 26.8125L36.9208 18.2497C37.1239 17.9879 37.5008 17.9404 37.7626 18.1435Z" fill="#967FC4"/>
<path d="M2.60529 18.6176L9.24949 7.12933L2.60529 18.6176Z" fill="#967FC4"/>
<path fill-rule="evenodd" clip-rule="evenodd" d="M9.54988 6.60995C9.83673 6.77585 9.93478 7.14287 9.76888 7.42972L3.12468 18.9179C2.95878 19.2048 2.59175 19.3029 2.3049 19.137C2.01805 18.971 1.92 18.604 2.0859 18.3172L8.7301 6.82895C8.896 6.5421 9.26303 6.44404 9.54988 6.60995Z" fill="#967FC4"/>
<path d="M2.60529 18.6176L9.24949 27.1804L2.60529 18.6176Z" fill="#967FC4"/>
<path fill-rule="evenodd" clip-rule="evenodd" d="M2.23746 18.1435C2.49926 17.9404 2.87617 17.9879 3.07931 18.2497L9.72351 26.8125C9.92665 27.0743 9.8791 27.4513 9.6173 27.6544C9.3555 27.8575 8.97859 27.81 8.77544 27.5482L2.13124 18.9854C1.9281 18.7236 1.97566 18.3467 2.23746 18.1435Z" fill="#967FC4"/>
<path fill-rule="evenodd" clip-rule="evenodd" d="M2.60531 18.0175C2.93668 18.0175 3.20531 18.2862 3.20531 18.6175V23.351C3.20531 23.6823 2.93668 23.951 2.60531 23.951C2.27394 23.951 2.00531 23.6823 2.00531 23.351V18.6175C2.00531 18.2862 2.27394 18.0175 2.60531 18.0175Z" fill="#967FC4"/>
<path d="M9.24951 7.12933L20.0001 8.59204L9.24951 7.12933Z" fill="#967FC4"/>
<path fill-rule="evenodd" clip-rule="evenodd" d="M8.65496 7.04845C8.69964 6.7201 9.00203 6.49014 9.33038 6.53482L20.0809 7.99752C20.4093 8.04219 20.6392 8.34459 20.5946 8.67293C20.5499 9.00128 20.2475 9.23124 19.9191 9.18656L9.1686 7.72386C8.84025 7.67919 8.61029 7.37679 8.65496 7.04845Z" fill="#967FC4"/>
<path d="M9.24951 7.12934L13.3559 4.76263L9.24951 7.12934Z" fill="#967FC4"/>
<path fill-rule="evenodd" clip-rule="evenodd" d="M13.8757 4.46303C14.0412 4.75013 13.9426 5.11701 13.6555 5.28248L9.54913 7.64918C9.26203 7.81465 8.89515 7.71605 8.72968 7.42895C8.5642 7.14185 8.6628 6.77497 8.9499 6.6095L13.0562 4.2428C13.3433 4.07733 13.7102 4.17593 13.8757 4.46303Z" fill="#967FC4"/>
<path d="M30.7505 34.8392L37.3948 23.351L30.7505 34.8392Z" fill="#967FC4"/>
<path fill-rule="evenodd" clip-rule="evenodd" d="M37.6951 22.8316C37.982 22.9975 38.08 23.3645 37.9141 23.6513L31.2699 35.1396C31.104 35.4264 30.737 35.5245 30.4502 35.3586C30.1633 35.1927 30.0653 34.8256 30.2312 34.5388L36.8754 23.0506C37.0413 22.7637 37.4083 22.6657 37.6951 22.8316Z" fill="#967FC4"/>
<path d="M9.24949 14.7881L2.60529 23.351L9.24949 14.7881Z" fill="#967FC4"/>
<path fill-rule="evenodd" clip-rule="evenodd" d="M9.6173 14.3141C9.8791 14.5172 9.92665 14.8942 9.72351 15.156L3.07931 23.7188C2.87617 23.9806 2.49926 24.0281 2.23746 23.825C1.97566 23.6218 1.9281 23.2449 2.13124 22.9831L8.77544 14.4203C8.97859 14.1585 9.3555 14.111 9.6173 14.3141Z" fill="#967FC4"/>
<path d="M9.24951 14.7882L13.3559 4.76263L9.24951 14.7882Z" fill="#967FC4"/>
<path fill-rule="evenodd" clip-rule="evenodd" d="M13.5833 4.2074C13.8899 4.333 14.0367 4.6834 13.9111 4.99005L9.80474 15.0156C9.67914 15.3222 9.32874 15.469 9.02209 15.3434C8.71545 15.2178 8.56868 14.8674 8.69428 14.5607L12.8006 4.53522C12.9262 4.22857 13.2766 4.0818 13.5833 4.2074Z" fill="#967FC4"/>
<path d="M2.60529 23.351L9.24949 34.8392L2.60529 23.351Z" fill="#967FC4"/>
<path fill-rule="evenodd" clip-rule="evenodd" d="M2.3049 22.8316C2.59175 22.6657 2.95878 22.7637 3.12468 23.0506L9.76888 34.5388C9.93478 34.8256 9.83673 35.1927 9.54988 35.3586C9.26303 35.5245 8.896 35.4264 8.7301 35.1396L2.0859 23.6513C1.92 23.3645 2.01805 22.9975 2.3049 22.8316Z" fill="#967FC4"/>
<path fill-rule="evenodd" clip-rule="evenodd" d="M12.7559 4.76263C12.7559 4.43126 13.0245 4.16263 13.3559 4.16263H26.6443C26.9756 4.16263 27.2443 4.43126 27.2443 4.76263C27.2443 5.094 26.9756 5.36263 26.6443 5.36263H13.3559C13.0245 5.36263 12.7559 5.094 12.7559 4.76263Z" fill="#967FC4"/>
</svg>
