<svg width="97" height="50" viewBox="0 0 97 50" fill="none" xmlns="http://www.w3.org/2000/svg">
<path d="M91.3016 0C93.8409 0 96.1671 2.55834 96.1045 5.2193C96.0884 5.93765 95.9327 8.19713 95.8575 9.19994C95.845 9.35837 95.7305 9.4898 95.5766 9.52401L92.8978 10.0965C92.6652 10.1469 92.4523 9.9579 92.4773 9.72025C92.658 8.01349 93.1036 3.97344 90.7416 4.16608C89.1651 4.2939 89.1525 5.59018 88.9468 6.85044C88.4278 10.0263 91.9351 14.5075 93.3684 17.2584C93.9786 18.4305 94.6926 19.6061 94.9539 20.9384C95.9917 26.2153 94.5011 30.7739 89.6947 31.4616C84.262 32.0287 83.6733 25.4069 84.058 22.6794C84.0795 22.5317 84.1922 22.4165 84.3372 22.3859C84.9653 22.2527 86.3896 21.934 87.2396 21.7432C87.4633 21.6928 87.6745 21.8638 87.6691 22.0943C87.619 24.3465 87.304 28.0031 89.4084 27.5224C90.3067 27.3172 91.0082 26.8274 91.3535 24.9821C91.6506 23.4031 91.6005 21.8836 90.8668 20.4775C89.0183 16.9272 85.6059 12.5018 85.3214 8.39337C85.0458 4.39473 87.2718 0.00360076 91.2981 0.00360076L91.3016 0Z" fill="white"/>
<path d="M18.0888 14.9792L24.5755 13.6469C24.8063 13.6001 25.0193 13.7855 25.005 14.0214L24.7974 17.3827C24.7867 17.5429 24.6721 17.6779 24.5165 17.7121L21.5048 18.3639C21.3509 18.3981 21.2364 18.5277 21.2239 18.6861L20.4705 28.1255C20.4509 28.3632 20.6638 28.554 20.8982 28.5072L23.1153 28.0571C23.348 28.0103 23.5609 28.1993 23.543 28.4388L23.28 31.8253C23.2674 31.9837 23.1529 32.1152 22.999 32.1494L20.4187 32.7165C20.2666 32.7507 20.152 32.8785 20.1377 33.0352L19.3915 41.3421C19.37 41.5816 19.583 41.7742 19.8174 41.7274L22.6787 41.1549C22.9113 41.1081 23.1225 41.2971 23.1046 41.5347L22.8541 45.0041C22.8433 45.1661 22.7252 45.2993 22.5678 45.3317L15.886 46.682C15.6534 46.7288 15.4405 46.5398 15.4583 46.3022L17.8043 15.3014C17.8168 15.1412 17.9331 15.008 18.0888 14.9756V14.9792Z" fill="white"/>
<path d="M37.5829 10.8941L44.0696 9.56181C44.3004 9.515 44.5134 9.70044 44.499 9.93629L44.2915 13.2976C44.2807 13.4578 44.1662 13.5929 44.0087 13.6271L40.9971 14.2788C40.8432 14.313 40.7287 14.4444 40.7162 14.6029L39.9628 24.0423C39.9431 24.2799 40.1579 24.4708 40.3905 24.4239L42.6076 23.9739C42.8402 23.927 43.0532 24.1161 43.0353 24.3555L42.7722 27.742C42.7597 27.9005 42.6452 28.0319 42.4913 28.0661L39.9109 28.6332C39.7588 28.6674 39.6443 28.7953 39.6318 28.9519L38.8856 37.2588C38.8641 37.4983 39.0771 37.6909 39.3115 37.6441L42.1728 37.0716C42.4054 37.0248 42.6166 37.2138 42.5987 37.4515L42.3481 40.9208C42.3374 41.0829 42.2193 41.2161 42.0618 41.2485L35.3801 42.5988C35.1475 42.6456 34.9345 42.4565 34.9524 42.2189L37.2984 11.2182C37.3109 11.0579 37.4272 10.9247 37.5829 10.8923V10.8941Z" fill="white"/>
<path d="M77.4854 2.73838L83.9721 1.4061C84.203 1.35929 84.4159 1.54473 84.4016 1.78057L84.194 5.14188C84.1833 5.30212 84.0688 5.43714 83.9113 5.47135L80.8997 6.12309C80.7458 6.1573 80.6313 6.28872 80.6187 6.44716L79.8654 15.8865C79.8457 16.1242 80.0604 16.315 80.293 16.2682L82.5102 15.8181C82.7428 15.7713 82.9557 15.9604 82.9378 16.1998L82.6748 19.5863C82.6623 19.7448 82.5495 19.8762 82.3938 19.9104L79.8135 20.4775C79.6614 20.5117 79.5469 20.6395 79.5325 20.7962L78.7864 29.1031C78.7649 29.3426 78.9778 29.5352 79.2122 29.4884L82.0735 28.9159C82.3062 28.8691 82.5173 29.0581 82.5012 29.2958L82.2507 32.7651C82.2382 32.9271 82.1219 33.0604 81.9644 33.0928L75.2826 34.4431C75.05 34.4899 74.8371 34.3008 74.855 34.0632L77.2009 3.06244C77.2134 2.90221 77.3298 2.76898 77.4854 2.73658V2.73838Z" fill="white"/>
<path d="M24.5272 44.446L26.8731 13.4632C26.9 13.1104 27.3652 13.0041 27.5406 13.312L31.4416 20.1678C31.6187 20.4793 32.0893 20.3677 32.109 20.0094L32.5635 12.2588C32.5725 12.0985 32.687 11.9635 32.8427 11.9293L35.763 11.2758C35.9974 11.2236 36.2158 11.4144 36.1979 11.6557L33.8036 42.8076C33.775 43.1785 33.2739 43.2667 33.12 42.9282L29.5358 34.994C29.3819 34.6555 28.8809 34.7437 28.8522 35.1164L28.1991 43.9274C28.1866 44.0895 28.0685 44.2227 27.9092 44.2551L24.9495 44.8294C24.7187 44.8745 24.5075 44.6854 24.5254 44.4478L24.5272 44.446Z" fill="white"/>
<path d="M49.9765 8.37716C47.1062 8.86687 45.2953 10.9841 45.1361 13.5533C44.8999 17.3791 44.3237 26.1397 43.9175 30.5794C43.5113 35.0192 44.4042 37.3381 45.2721 38.1392L51.6031 43.724C51.825 43.9202 52.1739 43.7762 52.1954 43.4792L53.6645 23.567C53.6824 23.3275 53.4659 23.1385 53.2315 23.1889L49.2392 24.0531C49.0836 24.0873 48.969 24.2187 48.9583 24.3789L48.7221 27.6412C48.706 27.8717 48.9064 28.0589 49.1337 28.0229L49.5488 27.9581C49.6633 27.9401 49.7636 28.0337 49.7546 28.1507L49.1927 35.3414C49.1766 35.5485 48.9887 35.7015 48.7937 35.6331C47.3729 35.1254 47.1975 32.9901 47.3013 31.9081L48.6899 13.5533C48.7579 12.1057 50.9231 12.4712 50.9231 13.4254L50.5223 18.2846C50.5026 18.5241 50.7173 18.7149 50.9517 18.6663L53.8435 18.0686C53.9991 18.0362 54.1137 17.9066 54.128 17.7481C54.2819 15.9766 54.561 12.6315 54.6129 11.544C54.6809 10.1145 53.5643 7.76503 49.9765 8.37716Z" fill="white"/>
<path fill-rule="evenodd" clip-rule="evenodd" d="M64.8324 5.84223C64.8574 5.51456 64.4691 5.32732 64.2311 5.55237L56.0015 13.2994C55.8047 13.4848 55.6848 13.7369 55.6651 14.007L53.8399 38.3427C53.8095 38.7388 54.3445 38.8846 54.5181 38.5281L56.567 34.3044C56.6153 34.2054 56.7066 34.1334 56.8139 34.11L59.8613 33.4618C60.0206 33.4276 60.1816 33.5051 60.255 33.6509L61.819 36.7529C61.9836 37.077 62.4667 36.9798 62.4954 36.6179L64.8324 5.84223ZM58.5371 27.5764C58.3027 27.6304 58.0826 27.4414 58.1005 27.2001L58.8503 16.6067C58.8682 16.351 58.9773 16.1098 59.1563 15.9262L60.1781 14.8801C60.4125 14.6407 60.8169 14.8261 60.79 15.161L59.8631 27.0129C59.8506 27.1695 59.7378 27.301 59.5857 27.3352L58.5371 27.5764Z" fill="white"/>
<path fill-rule="evenodd" clip-rule="evenodd" d="M14.7211 26.4926C14.7855 20.9816 13.9248 18.3639 11.3766 17.5231L8.39366 24.0171L11.0402 22.9098C11.178 22.8522 11.3212 22.98 11.2818 23.1241L10.9525 24.3123L12.8869 23.1763C13.0462 23.0827 13.2251 23.2627 13.1321 23.4229L6.29287 35.2298C6.1855 35.4153 5.90277 35.2892 5.96719 35.084L8.39366 27.5422L3.6964 29.564C3.56219 29.6216 3.41725 29.501 3.45125 29.357L6.25171 17.4457C5.23352 17.5951 4.10439 17.8094 2.85716 18.0758C2.70327 18.1082 2.58337 18.2414 2.57085 18.3999L0.1068 49.6113C0.0889054 49.8453 0.29469 50.0343 0.523737 49.9947L3.81271 49.4222C3.97197 49.3952 4.09187 49.2638 4.10797 49.1035L5.16373 38.4795C5.47689 38.4273 5.80793 38.3679 6.14792 38.2977L10.2744 47.7136C10.3424 47.8703 10.5106 47.9567 10.6752 47.9207L14.4348 47.1213C14.6603 47.0727 14.7819 46.8261 14.6853 46.6172L10.1437 36.816C12.5756 35.3072 14.6495 32.4068 14.7193 26.4944L14.7211 26.4926Z" fill="white"/>
<path fill-rule="evenodd" clip-rule="evenodd" d="M66.0903 5.60458L63.8339 35.9086C63.7981 36.3857 64.2293 36.7655 64.6946 36.6611C72.9743 34.8229 73.4163 33.055 74.4756 20.0292C75.3113 9.73465 75.5886 3.43512 66.6755 4.95464C66.357 5.00866 66.1154 5.27871 66.0903 5.60278V5.60458ZM69.2326 10.4332L67.7133 30.565C67.6722 31.107 68.2287 31.4958 68.6492 31.1538C70.1327 29.9493 70.2937 27.7835 70.6927 22.4669C70.7411 21.8152 70.7947 21.1148 70.852 20.3641C70.9039 19.7106 70.9558 19.0786 71.0059 18.4701C71.4604 12.9519 71.7557 9.38358 69.6871 9.85348C69.424 9.91289 69.254 10.1613 69.2326 10.4332Z" fill="white"/>
</svg>
