<svg width="218" height="38" viewBox="0 0 218 38" fill="none" xmlns="http://www.w3.org/2000/svg">
<path d="M119.336 28.6777C111.295 29.2141 108.135 17.8579 115.076 14.1588C120.662 10.691 127.998 15.9991 126.202 22.3153L113.656 22.343V19.319L124.311 19.2913L122.675 20.5582C123.07 16.3968 117.371 14.9264 115.565 18.5515C113.063 23.314 119.299 27.8454 122.985 23.7394L125.365 26.1161C123.888 27.8547 121.669 28.6777 119.336 28.6777Z" fill="white"/>
<path d="M104.89 28.3725V19.8092C105.106 15.8697 98.6641 15.8882 98.8992 19.8092L97.3192 19.0046C96.896 13.0769 105.549 10.9221 108.201 16.1009C109.574 17.8857 108.718 26.2363 108.944 28.3725H104.89ZM94.8457 28.3725V13.4468H98.8992V28.3725H94.8457Z" fill="white"/>
<path d="M75.0859 28.3725L69.49 13.4468H73.5717L77.2209 24.2943L75.9888 24.322L79.732 13.4468H82.6663L86.4095 24.322L85.1774 24.2943L88.8265 13.4468H92.9083L87.35 28.3725H84.4156L80.6443 18.0521H81.7917L78.0203 28.3725H75.0859Z" fill="white"/>
<path d="M60.8563 28.6777C50.4544 28.9921 50.4356 12.8364 60.8281 13.1046C71.2205 12.7994 71.2581 28.9644 60.8563 28.6777ZM60.8187 24.9139C65.9255 25.1173 65.8973 16.7297 60.8187 16.9146C55.7776 16.7574 55.7682 25.0896 60.8187 24.9139Z" fill="white"/>
<path d="M44.3788 28.3725V7.23232H48.423V28.3725H44.3788ZM40.8896 16.9979V13.4468H51.9216V16.9979H40.8896Z" fill="white"/>
<path fill-rule="evenodd" clip-rule="evenodd" d="M182.058 20.1421C181.982 19.9571 181.945 19.7629 181.935 19.5595C180.929 18.348 180.214 16.8129 179.217 15.6015C179.481 15.2593 179.001 15.2131 178.954 14.9541C179.302 14.7322 179.199 14.2976 179.349 13.9646C179.152 13.493 179.01 13.5947 178.851 13.0861C178.691 13.0491 178.728 13.1971 178.578 13.1693C178.38 12.6145 177.6 12.6515 177.506 12.0319C177.111 11.6805 176.556 11.8469 176.104 11.662C175.662 12.0134 175.568 12.1613 175.343 12.6885C174.985 12.8087 174.9 12.7809 174.562 12.8642C174.186 13.4283 174.11 13.7797 173.499 14.1403L173.537 14.4178C173.019 14.6212 172.85 15.2038 172.305 15.3795C172.126 15.9159 171.515 16.0639 171.364 16.6372C171.007 16.7204 171.082 17.3678 170.64 17.2753C163.69 25.6815 170.048 32.3583 179.208 26.8004C179.641 28.4095 180.6 29.8707 182.594 29.7042C182.97 29.2326 183.741 29.51 183.694 28.6685C183.638 27.9286 184.635 27.1981 183.694 26.7542C184.08 26.1901 183.092 23.3233 182.923 22.602C183.008 21.6402 182.406 20.9466 182.058 20.1328V20.1421ZM178.86 21.9361C178.775 22.0656 178.709 22.2321 178.662 22.4263C176.913 23.6655 173.885 25.3393 171.759 24.5255C171.167 23.1291 172.587 21.8714 173.367 20.8912C173.452 20.8449 173.499 20.8357 173.518 20.8449C174.139 20.0126 174.647 19.0786 175.333 18.2278C175.681 18.4683 176.358 18.533 176.396 17.9689C176.603 18.1631 176.772 17.9134 176.838 17.7562C177.459 18.7734 177.863 19.8462 178.747 20.697C178.794 21.0484 178.785 21.0854 179.01 21.3628C179.02 21.6032 178.973 21.7882 178.869 21.9269L178.86 21.9361Z" fill="white"/>
<path d="M158.207 12.4018C163.624 12.3463 166.775 18.6625 164.903 23.1568C161.658 26.5877 156.194 26.7819 151.783 27.8639C151.134 30.7492 151.454 34.4575 149.592 36.9914C148.886 36.9451 148.059 37.1763 147.476 37.5C147.081 37.2873 146.921 37.0746 146.413 37.0469C146.61 35.9649 144.466 34.8829 145.689 33.9211C144.889 32.3675 147.739 29.2696 145.538 28.0211C145.604 27.9009 145.802 27.9656 145.914 27.9101C145.454 27.6235 145.595 26.9206 145.266 26.5415C145.388 26.3288 145.303 26.0236 145.642 26.0884C145.294 24.3036 146.516 22.8702 147.429 21.483C150.946 21.3813 146.084 12.448 158.197 12.4295L158.207 12.4018ZM156.636 22.2043C157.84 21.6125 159.533 21.594 160.483 20.6045C160.182 20.327 159.74 18.3203 159.157 18.1168C157.323 17.414 155.094 17.2846 153.363 18.8012C152.583 20.7062 153.382 21.3813 152.554 22.6205C152.63 22.9072 152.949 22.9349 153.053 23.1938C154.238 22.528 155.432 22.8332 156.636 22.2043Z" fill="white"/>
<path d="M197.632 28.8904C188.086 30.666 181.014 21.8159 190.522 15.6755C191.989 15.361 192.807 14.1311 194.284 13.8444C194.895 13.2063 196.005 13.1508 196.513 12.411C196.776 12.8734 197.284 12.2353 197.604 12.4665C197.773 12.559 197.952 12.9196 198.074 12.6052C198.281 12.5867 198.093 12.8734 198.074 12.9289C198.432 12.9104 198.516 13.1878 198.939 13.1693C199.109 13.3728 198.921 13.3728 198.939 13.604C203.313 16.5817 195.083 17.4973 193.776 19.1618C192.13 19.5965 191.096 20.8819 189.901 21.9916C189.958 22.454 189.694 22.6482 189.488 22.9904C189.544 23.499 189.751 23.8782 189.986 24.3128C192.516 25.0804 195.403 25.0804 198.074 25.1451C198.601 25.8942 199.682 26.375 199.438 27.4663C198.921 28.0304 198.244 28.4373 197.623 28.8997L197.632 28.8904Z" fill="white"/>
<path fill-rule="evenodd" clip-rule="evenodd" d="M212.671 12.1798C208.354 11.0794 203.134 13.5207 202.589 18.4035C202.852 19.43 201.827 19.5965 202.053 20.623C202.175 22.0194 201.996 23.0459 203.002 24.0539C202.711 24.0354 202.805 24.2851 202.72 24.4793C202.984 24.8029 202.974 25.2838 203.209 25.626C203.143 25.626 203.106 25.663 203.087 25.7092C203.153 25.7277 203.219 25.7554 203.285 25.7739C205.871 30.2406 214.053 29.4175 216.339 25.2376L216.292 25.1636C217.025 24.2666 217.147 22.417 215.953 22.6575C213.715 23.8967 211.664 25.2191 208.993 25.2376C208.26 25.2376 207.611 24.4885 206.887 24.3683L207.009 24.1371C210.338 22.9811 216.593 22.1026 217.082 18.0336C216.536 15.62 215.351 12.7439 212.652 12.1891L212.671 12.1798ZM211.392 19.0139C209.84 19.7629 208.363 20.2253 206.821 20.9374C206.717 20.7339 206.435 20.7339 206.351 20.5028C206.934 19.0879 206.294 17.1273 208.25 16.7297C210.413 16.0454 212.191 15.3703 212.849 18.0429C212.483 18.4775 212.003 18.8012 211.401 19.0231L211.392 19.0139Z" fill="white"/>
<path d="M130.434 18.7549C132.701 14.6582 138.851 11.8839 143.61 11.7452C143.958 12.4203 144.795 12.7809 145.068 13.493C145.519 13.7889 145.849 14.0571 145.811 14.6767C145.51 15.0281 145.247 15.3333 144.861 15.6015C143.563 15.4998 142.115 16.0639 140.958 16.3598C140.036 15.8234 139.181 17.0256 138.259 17.0441C137.92 17.4603 137.356 17.5712 136.811 17.7562C136.792 17.9689 137.017 17.8764 136.961 18.0984C137.704 18.7087 139.199 17.8764 139.754 18.6902C141.184 18.2833 141.297 20.1421 142.19 20.3825C146.958 24.7659 139.942 30.1388 135.588 31.2578C135.456 31.2208 135.249 31.4428 135.287 31.1746C134.779 31.8312 133.81 31.6 133.105 31.8959C132.804 31.6832 132.55 31.5445 132.371 31.1931C132.164 31.2671 132.259 30.9249 132.099 30.9619C132.174 30.7584 132.193 30.6475 132.174 30.6382C131.826 30.2128 131.309 28.7609 131.948 28.2153C134.45 28.0119 137.111 26.0236 139.237 24.2481C139.293 23.4805 140.516 22.8794 139.679 22.2321C138.833 22.0656 137.704 21.9269 136.886 21.7142C135.419 22.0841 133.613 22.1488 132.07 21.8899C131.939 21.7142 131.835 21.5385 131.572 21.6772C131.29 21.4275 131.008 21.2241 130.773 20.9281C130.735 20.512 130.838 20.2068 130.49 19.9386C130.528 19.4208 130.603 19.2451 130.425 18.7642L130.434 18.7549Z" fill="white"/>
<path d="M119.346 28.5852C111.304 29.1216 108.144 17.7654 115.085 14.0664C120.672 10.5985 127.998 15.9066 126.211 22.2228L113.665 22.2506V19.2266L124.33 19.1988L122.694 20.4658C123.089 16.3043 117.389 14.8339 115.584 18.459C113.082 23.2216 119.308 27.7529 123.004 23.647L125.384 26.0236C123.907 27.7622 121.687 28.5852 119.355 28.5852H119.346Z" fill="white"/>
<path d="M104.89 28.2801V19.7167C105.106 15.7772 98.6641 15.7957 98.8992 19.7167L97.3192 18.9121C96.896 12.9844 105.549 10.8297 108.201 16.0084C109.574 17.7932 108.718 26.1438 108.944 28.2801H104.89ZM94.8551 28.2801V13.3543H98.8992V28.2801H94.8551Z" fill="white"/>
<path d="M75.0859 28.2801L69.49 13.3543H73.5717L77.2209 24.2018L75.9888 24.2296L79.732 13.3543H82.6663L86.4095 24.2296L85.1774 24.2018L88.8265 13.3543H92.9083L87.35 28.2801H84.4156L80.6443 17.9596H81.7917L78.0203 28.2801H75.0859Z" fill="white"/>
<path d="M60.8563 28.5852C50.4544 28.8997 50.4356 12.7439 60.8281 13.0121C71.2205 12.7069 71.2581 28.8719 60.8563 28.5852ZM60.8281 24.8122C65.9349 25.0156 65.9067 16.628 60.8281 16.8129C55.787 16.6557 55.7776 24.9879 60.8281 24.8122Z" fill="white"/>
<path d="M44.3882 28.2801V7.13984H48.4324V28.2801H44.3882ZM40.899 16.9054V13.3543H51.931V16.9054H40.899Z" fill="white"/>
<path fill-rule="evenodd" clip-rule="evenodd" d="M4.42678 6.36303C8.11351 3.87541 12.0824 1.1011 16.5121 0.5C21.9952 1.81317 27.9203 5.18858 31.5882 9.18358C33.14 14.8802 34.579 25.4595 28.842 29.2048C25.1082 31.7202 20.9983 34.513 16.5215 35.2251C11.029 34.0969 5.17917 30.7029 1.44541 26.523C-0.134616 20.6692 -1.51714 10.1083 4.42678 6.36303ZM16.4933 2.04436C11.9507 2.97838 5.95978 6.48325 2.85615 9.9049C1.55827 13.5947 1.69935 18.6347 2.05673 22.676C2.02852 28.3263 11.8943 32.4323 16.5027 33.69C21.0547 32.6357 27.0927 29.2696 30.2151 25.8294C31.513 22.2043 31.2967 17.2106 30.9957 13.2618C31.4095 7.76868 21.0735 3.44076 16.4933 2.06286V2.04436Z" fill="white"/>
<path d="M16.0324 27.3645C16.0794 27.4755 15.9948 27.605 15.8725 27.605C14.4617 27.3183 9.81571 28.4928 9.43951 26.3195C9.54297 25.9866 7.54912 21.2981 8.58366 21.4183C8.90343 21.5292 10.6527 21.1593 10.728 21.6957C11.123 22.3338 11.4051 26.1993 12.609 26.0421H15.28C15.722 25.9866 15.8819 27.1241 16.0418 27.3645H16.0324Z" fill="white"/>
<path d="M11.0948 9.87716H15.6468C17.1516 11.6527 16.5496 15.9991 20.2646 15.9251C21.0264 16.0084 22.8133 15.5737 23.0202 16.6835C26.3496 27.0594 23.7538 23.2678 13.4742 23.9706C13.3049 23.9706 13.1639 23.8597 13.1168 23.6932L9.73107 11.699C9.47713 10.7834 10.1543 9.87716 11.1042 9.87716H11.0948Z" fill="white"/>
<path d="M17.2362 8.59173C16.8694 7.61147 21.2521 8.30505 21.5625 8.11085C23.6127 7.8889 24.083 12.5775 24.7696 13.7334C25.1552 14.7322 21.1957 14.0386 20.8759 14.2328C18.1673 14.4178 17.9134 10.321 17.2268 8.59173H17.2362Z" fill="white"/>
</svg>
