<svg width="210" height="40" viewBox="0 0 210 40" fill="none" xmlns="http://www.w3.org/2000/svg">
<g clip-path="url(#clip0_84_439)">
<mask id="mask0_84_439" style="mask-type:luminance" maskUnits="userSpaceOnUse" x="0" y="0" width="40" height="40">
<path d="M39.0816 0.5H0.081604V39.5H39.0816V0.5Z" fill="white"/>
</mask>
<g mask="url(#mask0_84_439)">
<path d="M19.5816 39.5C30.3521 39.5 39.0816 30.7705 39.0816 20C39.0816 9.2295 30.3521 0.5 19.5816 0.5C8.8111 0.5 0.081604 9.2295 0.081604 20C0.081604 30.7705 8.8111 39.5 19.5816 39.5Z" fill="white"/>
<path d="M25.1001 30.6925C22.8121 31.557 20.4656 31.7455 18.0996 31.154C15.8051 30.5755 14.4726 29.009 14.0761 26.682C13.9266 25.8045 13.8421 24.9075 13.8291 24.0235C13.7966 21.7615 13.8161 19.4995 13.8161 17.2375C13.8161 14.748 13.8291 12.2585 13.8096 9.769C13.8096 9.366 13.9396 9.2165 14.3361 9.158C15.6621 8.9695 16.9816 8.7485 18.3076 8.521C18.6456 8.4625 18.7561 8.5535 18.7561 8.9045C18.7366 10.237 18.7496 11.563 18.7496 12.889C18.7496 13.357 18.9771 13.591 19.4321 13.591C21.0181 13.591 22.6041 13.591 24.1836 13.5975C24.6841 13.5975 24.6971 13.6105 24.6971 14.1175C24.6971 15.177 24.6906 16.2365 24.7036 17.296C24.7036 17.6145 24.5866 17.7185 24.2746 17.712C22.5781 17.7055 20.8816 17.712 19.1851 17.7055C18.9056 17.7055 18.7496 17.7705 18.7496 18.089C18.7691 20.208 18.7691 22.327 18.7951 24.446C18.7951 24.7385 18.8536 25.031 18.9121 25.317C19.2046 26.643 19.9131 27.2345 21.2716 27.2735C22.3116 27.3125 23.3321 27.1565 24.3266 26.838C24.5866 26.7535 24.7231 26.786 24.7751 27.085C24.9571 28.1445 25.1456 29.1975 25.3406 30.2505C25.3861 30.4845 25.3211 30.608 25.1001 30.6925Z" fill="#202854"/>
</g>
<path d="M53.6286 18.96H51.1911V28.762H47.4536V18.96H45.5816V15.2225H47.4536V10.9715H51.1911V15.2225H53.6286V18.96Z" fill="white"/>
<path d="M62.2801 29.113C61.0321 29.113 59.8946 28.7945 58.8676 28.151C57.8471 27.5075 57.0281 26.6495 56.4171 25.577C55.8126 24.4915 55.5071 23.2955 55.5071 21.989C55.5071 20.9945 55.6826 20.0715 56.0336 19.2135C56.3846 18.349 56.8656 17.5885 57.4831 16.9385C58.1071 16.282 58.8286 15.762 59.6476 15.3915C60.4666 15.021 61.3441 14.839 62.2736 14.839C63.5216 14.839 64.6526 15.1575 65.6731 15.801C66.7001 16.4445 67.5191 17.3025 68.1236 18.388C68.7346 19.4735 69.0466 20.6695 69.0466 21.989C69.0466 22.9705 68.8711 23.8935 68.5201 24.7515C68.1691 25.6095 67.6816 26.37 67.0576 27.0265C66.4466 27.6765 65.7251 28.1835 64.9061 28.554C64.0936 28.9245 63.2161 29.1065 62.2801 29.1065V29.113ZM62.2801 25.3755C62.8586 25.3755 63.3786 25.2195 63.8401 24.914C64.3016 24.5955 64.6591 24.186 64.9256 23.666C65.1856 23.1525 65.3156 22.5935 65.3156 21.989C65.3156 21.3845 65.1726 20.7995 64.8931 20.286C64.6201 19.7595 64.2561 19.35 63.7946 19.038C63.3331 18.7325 62.8261 18.5765 62.2801 18.5765C61.7341 18.5765 61.1946 18.7325 60.7331 19.051C60.2716 19.3695 59.9076 19.779 59.6346 20.299C59.3746 20.8125 59.2446 21.378 59.2446 21.989C59.2446 22.6 59.3811 23.211 59.6476 23.7245C59.9271 24.2315 60.2976 24.6345 60.7591 24.927C61.2206 25.226 61.7276 25.3755 62.2736 25.3755H62.2801Z" fill="white"/>
<path d="M78.3806 28.762H74.6951L70.1711 15.2225H73.8241L76.5476 23.3345L79.2451 15.2225H82.8981L85.5891 23.3345L88.2996 15.2225H91.9721L87.4351 28.762H83.7626L81.0651 20.637L78.3676 28.762H78.3806Z" fill="white"/>
<path d="M107.039 20.1495V28.762H103.302V21.1765C103.302 20.6955 103.185 20.2665 102.951 19.8895C102.723 19.4995 102.418 19.194 102.028 18.9665C101.651 18.739 101.222 18.6285 100.754 18.6285C100.286 18.6285 99.8566 18.739 99.4666 18.9665C99.0766 19.194 98.7711 19.4995 98.5436 19.8895C98.3161 20.2665 98.2056 20.6955 98.2056 21.1765V28.762H94.4681L94.4551 15.2225H98.1926L98.2056 16.2235C98.6541 15.788 99.1871 15.45 99.7916 15.2095C100.409 14.9625 101.053 14.8455 101.729 14.8455C102.71 14.8455 103.601 15.086 104.394 15.5605C105.2 16.0415 105.837 16.6785 106.318 17.4845C106.799 18.2775 107.033 19.168 107.033 20.1495H107.039Z" fill="white"/>
<path d="M115.983 29.113C114.735 29.113 113.598 28.7945 112.571 28.151C111.55 27.5075 110.731 26.6495 110.12 25.564C109.516 24.4785 109.21 23.2825 109.21 21.976C109.21 20.9945 109.386 20.0715 109.737 19.2135C110.088 18.349 110.569 17.5885 111.186 16.9385C111.81 16.282 112.532 15.762 113.351 15.3915C114.17 15.021 115.047 14.839 115.977 14.839C117.049 14.839 118.031 15.0665 118.915 15.528C119.812 15.9895 120.559 16.6135 121.177 17.413C121.801 18.206 122.243 19.103 122.503 20.1105C122.776 21.1115 122.821 22.158 122.639 23.237H113.24C113.357 23.6335 113.539 23.9975 113.78 24.3225C114.033 24.641 114.339 24.8945 114.703 25.083C115.073 25.2715 115.496 25.369 115.977 25.382C116.445 25.3885 116.88 25.2845 117.277 25.057C117.673 24.8295 118.011 24.5305 118.291 24.147L122.113 25.0245C121.56 26.227 120.741 27.2085 119.649 27.9755C118.557 28.736 117.335 29.113 115.977 29.113H115.983ZM113.11 20.4745H118.863C118.746 20.026 118.544 19.6165 118.265 19.2525C117.985 18.8885 117.647 18.609 117.251 18.401C116.861 18.193 116.438 18.089 115.977 18.089C115.515 18.089 115.099 18.193 114.703 18.401C114.313 18.609 113.981 18.895 113.702 19.2525C113.429 19.6035 113.234 20.013 113.104 20.4745H113.11Z" fill="white"/>
<path d="M129.399 29.0025C128.704 28.9505 128.034 28.801 127.397 28.567C126.754 28.32 126.182 27.995 125.675 27.592C125.181 27.176 124.791 26.682 124.511 26.1035L127.651 24.7515C127.748 24.8945 127.898 25.057 128.099 25.226C128.294 25.3885 128.535 25.5315 128.814 25.6615C129.1 25.785 129.438 25.85 129.815 25.85C130.095 25.85 130.368 25.8175 130.628 25.7525C130.888 25.681 131.102 25.5705 131.265 25.4145C131.427 25.252 131.512 25.0375 131.512 24.7775C131.512 24.4915 131.408 24.2705 131.2 24.1145C130.992 23.9585 130.738 23.848 130.439 23.7765C130.153 23.6985 129.867 23.627 129.601 23.575C128.769 23.432 127.982 23.172 127.248 22.8015C126.52 22.4245 125.922 21.937 125.46 21.339C124.999 20.741 124.771 20.0325 124.771 19.2005C124.771 18.2905 125.012 17.504 125.486 16.8475C125.967 16.178 126.585 15.6645 127.358 15.3005C128.125 14.9365 128.957 14.761 129.848 14.761C130.901 14.761 131.882 14.982 132.786 15.424C133.689 15.866 134.417 16.49 134.963 17.296L132.012 19.0445C131.895 18.8755 131.739 18.713 131.551 18.557C131.369 18.3945 131.161 18.258 130.914 18.154C130.68 18.037 130.426 17.972 130.153 17.9525C129.802 17.9265 129.484 17.9525 129.191 18.0175C128.905 18.0825 128.671 18.1995 128.502 18.3815C128.34 18.5635 128.255 18.804 128.255 19.1095C128.255 19.415 128.385 19.6295 128.645 19.7725C128.905 19.909 129.211 20.013 129.555 20.0845C129.9 20.1495 130.199 20.2275 130.459 20.312C131.245 20.5655 131.98 20.8905 132.669 21.287C133.364 21.677 133.923 22.1515 134.346 22.7235C134.768 23.2955 134.97 23.9585 134.944 24.7255C134.944 25.6225 134.677 26.4025 134.144 27.0785C133.611 27.748 132.922 28.255 132.071 28.606C131.232 28.9505 130.335 29.0805 129.393 28.996L129.399 29.0025Z" fill="white"/>
<path d="M143.842 29.139C142.536 29.139 141.333 28.8205 140.254 28.177C139.182 27.5335 138.324 26.6755 137.68 25.59C137.037 24.5045 136.718 23.3085 136.718 21.989C136.718 21.0075 136.907 20.0845 137.271 19.2265C137.641 18.3685 138.155 17.6145 138.805 16.9645C139.461 16.308 140.222 15.788 141.08 15.4175C141.938 15.047 142.861 14.865 143.842 14.865C144.629 14.865 145.324 15.034 145.929 15.3785C146.533 15.71 147.047 16.1455 147.476 16.6785V15.216H151.213V35.5285H147.476V27.3255C147.053 27.852 146.54 28.281 145.929 28.6255C145.324 28.97 144.629 29.139 143.842 29.139ZM143.894 18.453C143.27 18.453 142.705 18.6155 142.204 18.9405C141.697 19.259 141.294 19.688 141.002 20.2275C140.703 20.7605 140.553 21.3455 140.553 21.989C140.553 22.6325 140.703 23.2435 141.002 23.7765C141.301 24.3095 141.704 24.732 142.204 25.0505C142.711 25.369 143.277 25.525 143.894 25.525C144.512 25.525 145.058 25.369 145.545 25.0505C146.039 24.732 146.429 24.3095 146.709 23.7765C147.001 23.237 147.144 22.639 147.144 21.989C147.144 21.339 147.001 20.7475 146.709 20.2145C146.429 19.6815 146.039 19.259 145.545 18.9405C145.058 18.6155 144.505 18.453 143.894 18.453Z" fill="white"/>
<path d="M153.956 23.8025V15.216H157.694V22.7755C157.694 23.2565 157.804 23.6855 158.032 24.0755C158.266 24.4525 158.578 24.758 158.968 24.9855C159.358 25.213 159.78 25.3235 160.242 25.3235C160.703 25.3235 161.139 25.213 161.529 24.9855C161.919 24.758 162.224 24.459 162.452 24.0755C162.679 23.6855 162.79 23.2565 162.79 22.7755V15.216H166.527L166.54 28.7555H162.803L162.79 27.7285C162.341 28.164 161.808 28.502 161.191 28.7425C160.586 28.9895 159.943 29.1065 159.267 29.1065C158.292 29.1065 157.401 28.866 156.602 28.3915C155.796 27.9105 155.159 27.2735 154.678 26.4805C154.197 25.6745 153.963 24.784 153.963 23.8025H153.956Z" fill="white"/>
<path d="M179.469 15.2225H183.206V28.762H179.456L179.28 27.3515C178.929 27.878 178.474 28.3005 177.928 28.6255C177.376 28.9505 176.732 29.113 175.991 29.113C174.984 29.113 174.035 28.9245 173.164 28.541C172.286 28.164 171.513 27.6375 170.85 26.968C170.18 26.2985 169.66 25.525 169.277 24.654C168.906 23.77 168.724 22.821 168.724 21.807C168.724 20.793 168.9 19.935 169.251 19.0965C169.602 18.258 170.102 17.517 170.739 16.8735C171.383 16.23 172.117 15.7295 172.949 15.372C173.788 15.008 174.691 14.8325 175.66 14.8325C176.492 14.8325 177.233 15.008 177.896 15.359C178.565 15.71 179.144 16.1585 179.644 16.698L179.482 15.2095L179.469 15.2225ZM175.894 25.525C176.511 25.525 177.064 25.369 177.558 25.0505C178.052 24.732 178.448 24.3095 178.734 23.7765C179.027 23.237 179.17 22.639 179.17 21.989C179.17 21.339 179.027 20.7345 178.734 20.2015C178.448 19.6685 178.052 19.246 177.558 18.9275C177.064 18.609 176.505 18.453 175.894 18.453C175.283 18.453 174.704 18.609 174.204 18.9275C173.697 19.246 173.294 19.675 173.001 20.2145C172.702 20.7475 172.553 21.339 172.553 21.989C172.553 22.639 172.702 23.237 173.001 23.7765C173.307 24.3095 173.716 24.732 174.223 25.0505C174.73 25.369 175.289 25.525 175.9 25.525H175.894Z" fill="white"/>
<path d="M186.482 28.762L186.469 15.2225H190.207L190.22 16.2235C190.668 15.788 191.201 15.45 191.806 15.2095C192.423 14.9625 193.067 14.8455 193.743 14.8455C194.237 14.8455 194.737 14.917 195.231 15.06L193.756 18.8365C193.431 18.7 193.099 18.635 192.768 18.635C192.3 18.635 191.871 18.7455 191.481 18.973C191.091 19.2005 190.785 19.506 190.558 19.896C190.33 20.273 190.22 20.702 190.22 21.183V28.7685H186.482V28.762Z" fill="white"/>
<path d="M202.57 29.113C201.322 29.113 200.184 28.7945 199.157 28.151C198.137 27.5075 197.318 26.6495 196.707 25.564C196.102 24.4785 195.797 23.2825 195.797 21.976C195.797 20.9945 195.972 20.0715 196.323 19.2135C196.674 18.349 197.162 17.5885 197.773 16.9385C198.397 16.282 199.118 15.762 199.937 15.3915C200.756 15.021 201.634 14.839 202.563 14.839C203.636 14.839 204.617 15.0665 205.501 15.528C206.398 15.9895 207.152 16.6135 207.763 17.413C208.387 18.206 208.829 19.103 209.089 20.1105C209.362 21.1115 209.408 22.158 209.226 23.237H199.827C199.944 23.6335 200.126 23.9975 200.366 24.3225C200.62 24.641 200.925 24.8945 201.289 25.083C201.66 25.2715 202.082 25.369 202.563 25.382C203.031 25.3885 203.467 25.2845 203.863 25.057C204.26 24.8295 204.598 24.5305 204.877 24.147L208.699 25.0245C208.147 26.227 207.328 27.2085 206.236 27.9755C205.144 28.736 203.922 29.113 202.563 29.113H202.57ZM199.703 20.4745H205.456C205.339 20.026 205.137 19.6165 204.858 19.2525C204.578 18.8885 204.24 18.609 203.844 18.401C203.454 18.193 203.031 18.089 202.57 18.089C202.108 18.089 201.692 18.193 201.296 18.401C200.906 18.609 200.574 18.895 200.295 19.2525C200.022 19.6035 199.827 20.013 199.697 20.4745H199.703Z" fill="white"/>
</g>
<defs>
<clipPath id="clip0_84_439">
<rect width="209.261" height="39" fill="white" transform="translate(0.081604 0.5)"/>
</clipPath>
</defs>
</svg>
